<svg width="42" height="34" viewBox="0 0 42 34" fill="none" xmlns="http://www.w3.org/2000/svg">
<path d="M2.24984 19.0832H34.729L23.6873 30.1041C23.4921 30.2977 23.3371 30.5282 23.2313 30.782C23.1255 31.0359 23.0711 31.3082 23.0711 31.5832C23.0711 31.8583 23.1255 32.1306 23.2313 32.3844C23.3371 32.6383 23.4921 32.8687 23.6873 33.0624C23.881 33.2577 24.1114 33.4127 24.3653 33.5184C24.6192 33.6242 24.8915 33.6786 25.1665 33.6786C25.4415 33.6786 25.7138 33.6242 25.9677 33.5184C26.2216 33.4127 26.452 33.2577 26.6457 33.0624L41.229 18.4791C41.4243 18.2854 41.5793 18.055 41.685 17.8011C41.7908 17.5472 41.8453 17.2749 41.8453 16.9999C41.8453 16.7249 41.7908 16.4526 41.685 16.1987C41.5793 15.9448 41.4243 15.7144 41.229 15.5207L26.6457 0.937398C26.4514 0.743151 26.2208 0.589067 25.967 0.483941C25.7132 0.378815 25.4412 0.324707 25.1665 0.324707C24.6117 0.324707 24.0796 0.545099 23.6873 0.937398C23.4931 1.13164 23.339 1.36225 23.2339 1.61605C23.1288 1.86984 23.0747 2.14186 23.0747 2.41656C23.0747 2.97136 23.295 3.50343 23.6873 3.89573L34.729 14.9166H2.24984C1.6973 14.9166 1.1674 15.1361 0.776698 15.5268C0.385997 15.9175 0.166504 16.4474 0.166504 16.9999C0.166504 17.5524 0.385997 18.0823 0.776698 18.473C1.1674 18.8637 1.6973 19.0832 2.24984 19.0832Z" fill=""/>
</svg>
