<svg width="683" height="464" viewBox="0 0 683 464" fill="none" xmlns="http://www.w3.org/2000/svg">
<path d="M419.864 116.267L422.931 115.467C437.598 111.333 461.998 111.6 479.598 116.133C490.664 118.933 508.798 127.067 517.864 133.333C542.664 150.4 561.064 178.667 567.198 209.2C570.264 224.267 569.331 249.733 565.198 264C552.798 306.933 517.864 339.467 473.998 348.8C463.331 351.067 436.798 351.333 428.531 349.333C425.598 348.667 422.398 348 421.598 348C420.264 348 419.864 360.533 419.864 406V464H472.798L474.398 444.933C475.331 434.533 476.664 424.133 477.331 421.867C479.331 415.333 483.598 412.4 496.531 408.8C512.264 404.4 523.198 400 535.598 393.2C554.664 382.667 555.598 382.267 560.264 383.2C563.198 383.733 570.264 388.533 580.931 397.333C589.731 404.667 597.464 410.667 598.131 410.667C598.798 410.667 605.998 403.867 614.398 395.467C625.064 384.8 629.198 379.733 628.398 378.533C627.864 377.467 623.064 371.6 617.731 365.333C604.798 349.867 601.198 344.4 601.198 339.6C601.198 337.333 603.998 330.8 608.131 323.733C615.864 310.133 623.331 292.4 627.864 276.267C632.664 259.2 633.064 259.067 666.264 255.867L682.531 254.267V209.6L676.264 208.8C672.664 208.4 662.931 207.467 654.531 206.533C633.731 204.533 631.064 202.533 626.531 185.733C621.864 168 615.864 154.133 605.864 137.333C601.731 130.4 600.664 126.933 601.064 120.533C601.198 119.067 607.598 110.133 615.331 100.667L629.331 83.6L613.731 67.8667L598.131 52.2667L584.931 63.0667C560.664 83.2 559.198 83.6 544.264 75.2C528.531 66.4 517.598 61.6 503.464 57.2C495.998 54.9333 487.998 52.2667 485.598 51.3333C478.264 48.1333 476.931 44.5333 474.798 21.2L472.798 0H419.864V116.267Z" fill=""/>
<path d="M298.264 39.4667C287.598 42 277.998 47.0667 270.131 54.4C266.531 57.8667 244.798 85.2 221.864 115.333C198.931 145.333 178.664 171.333 176.798 173.067C174.264 175.6 157.464 180.533 100.398 196.133C19.0645 218.267 17.1978 218.933 8.13112 232.533C0.397785 244.133 -0.402215 249.333 0.131119 285.733L0.531119 318.133L4.93112 326.933C12.6645 342.667 25.8645 350.933 44.5311 351.733L55.1978 352.267L57.4645 341.067C67.1978 293.6 112.398 260.533 160.798 265.333C183.331 267.6 202.398 276.933 219.331 294C232.664 307.333 241.331 323.467 244.798 340.933L246.931 352H389.198V37.3334L347.598 37.4667C316.931 37.4667 303.864 38 298.264 39.4667Z" fill=""/>
<path d="M437.198 143.6C435.331 143.867 430.664 145.067 426.931 146.133L419.864 148.133V315.6L428.264 318C439.198 321.2 460.131 321.2 471.864 318.133C503.464 309.867 528.664 284.533 536.398 253.2C539.064 242.267 539.198 222 536.398 210.667C528.798 178 501.064 151.467 467.598 144.8C457.998 142.8 444.931 142.267 437.198 143.6Z" fill=""/>
<path d="M131.864 298.533C91.5978 311.333 73.8645 357.733 95.1978 394.267C99.5978 401.6 110.264 412.267 117.598 416.667C138.264 428.667 164.131 428.667 184.798 416.667C192.664 412 202.798 401.6 207.598 393.067C213.331 382.933 215.864 373.067 215.864 360.667C215.864 354.667 214.931 346.533 213.731 342.533C207.598 321.6 190.131 304.267 168.931 298.133C159.064 295.333 141.331 295.467 131.864 298.533Z" fill=""/>
</svg>
