<svg width="579" height="651" viewBox="0 0 579 651" fill="none" xmlns="http://www.w3.org/2000/svg">
<path d="M276.662 2.40455C253.462 13.0712 252.529 46.0045 275.062 57.6045L278.795 59.6045L278.529 123.871H299.995V91.2046C299.995 65.0712 300.395 58.5379 301.729 58.5379C304.929 58.5379 314.395 49.3379 317.195 43.4712C324.529 28.1379 316.929 8.53788 301.062 2.00455C294.395 -0.795455 283.195 -0.662121 276.662 2.40455Z" fill=""/>
<path d="M88.6619 51.4712C71.4619 55.4712 62.262 66.0045 62.262 81.8712C62.1286 109.471 95.062 123.338 114.395 103.871C116.662 101.738 119.195 98.1379 120.262 95.8712L121.995 91.8712L143.329 92.1379L164.662 92.5379L165.062 135.871L165.329 179.071L185.329 159.338V77.3379L181.862 74.6712C178.529 72.0045 176.662 71.8712 149.862 71.8712C122.395 71.8712 121.462 71.7379 120.662 69.0712C119.329 64.8045 112.129 57.3379 106.795 54.6712C101.595 52.0045 92.7953 50.4045 88.6619 51.4712Z" fill=""/>
<path d="M472.662 54.4045C467.062 56.9379 459.462 64.5379 457.995 69.0712C457.195 71.7379 456.262 71.8712 428.795 71.8712C401.995 71.8712 400.129 72.0045 396.795 74.6712L393.329 77.3379V159.338L413.329 179.071L413.595 135.871L413.995 92.5379L434.795 92.1379L455.595 91.8712L459.462 97.8712C474.662 122.138 510.129 115.871 516.129 88.0045C518.929 74.9379 511.729 60.5379 499.462 54.6712C492.262 51.0712 480.129 50.9379 472.662 54.4045Z" fill=""/>
<path d="M14.662 138.805C2.52862 146.138 -2.67138 160.138 1.32862 174.538C4.26196 185.338 18.3953 195.871 29.862 195.871C41.5953 195.871 53.3286 188.938 57.862 179.205L60.1286 174.405L92.662 175.205L93.3286 235.205C93.7286 268.138 94.262 295.338 94.3953 295.605C95.9953 297.738 105.729 299.871 113.995 299.871H123.995V278.538H113.329V161.071L109.995 157.871C106.795 154.538 106.395 154.538 83.5953 154.538H60.3953L56.262 148.138C47.3286 134.271 29.062 130.138 14.662 138.805Z" fill=""/>
<path d="M532.662 138.405C528.395 140.805 524.529 144.538 522.129 148.405L518.262 154.538H495.062C472.262 154.538 471.862 154.538 468.662 157.871L465.329 161.071V278.538H454.662V300.138L467.462 299.605C486.929 298.938 485.329 304.671 485.329 234.405V176.005L518.795 175.205L520.929 179.605C523.729 185.338 531.995 192.405 538.529 194.271C550.262 197.871 560.662 195.205 569.595 186.405C581.462 174.538 581.862 155.871 570.395 143.605C561.062 133.738 544.662 131.471 532.662 138.405Z" fill=""/>
<path d="M268.129 156.805C265.595 178.405 266.395 176.805 255.995 179.871C250.929 181.338 242.262 184.938 236.795 187.605L226.662 192.671L201.062 172.938L173.062 200.938L191.995 224.938L185.462 237.338C181.862 244.271 177.862 253.338 176.529 257.605C174.795 263.205 173.462 265.471 171.462 265.871C168.395 266.405 146.929 269.205 145.062 269.205C144.395 269.205 144.129 278.005 144.262 288.805L144.662 308.538L158.529 310.538L172.262 312.538L174.662 321.871C177.595 333.071 181.729 343.871 185.995 351.205L189.062 356.671L181.062 367.071L172.929 377.471L200.795 405.338L210.662 397.738C219.595 390.938 220.662 390.405 223.195 392.005C231.195 397.071 249.329 405.338 257.329 407.338L266.395 409.738L267.195 415.471C267.595 418.671 268.395 423.871 268.795 427.205L269.595 433.205H309.062L309.729 427.471C310.262 424.405 310.929 419.205 311.329 415.738L312.262 409.738L321.329 407.338C329.329 405.338 347.462 397.071 355.462 392.005C357.995 390.271 359.062 390.805 367.995 397.871L377.595 405.605L391.595 391.471L405.729 377.471L397.595 367.205L389.595 356.805L394.662 346.671C399.195 337.605 404.529 322.538 405.595 315.205C405.995 312.938 407.862 312.271 419.995 310.538L433.995 308.538L434.395 288.805C434.529 278.005 434.262 269.205 433.595 269.205C431.729 269.205 410.262 266.405 407.195 265.871C405.195 265.471 403.862 263.205 402.129 257.605C400.795 253.338 396.795 244.271 393.195 237.471L386.662 225.071L395.995 212.805L405.462 200.671L377.595 172.805L364.795 182.671L351.995 192.671L340.262 186.938C333.862 183.871 325.329 180.405 321.329 179.471C312.929 177.338 312.929 177.338 310.662 157.471L309.062 143.871H269.595L268.129 156.805ZM301.595 233.338C313.462 235.871 322.662 241.071 332.129 250.405C356.662 274.938 356.795 311.738 332.529 336.671C320.262 349.338 303.595 355.338 284.529 354.138C246.795 351.871 220.395 314.805 229.995 277.871C233.062 266.405 238.129 258.005 247.329 249.338C262.929 234.805 281.862 229.205 301.595 233.338Z" fill=""/>
<path d="M61.5953 228.671C52.7953 230.938 43.7286 237.071 38.5286 244.271C30.3953 255.471 30.662 251.871 30.662 379.471V495.871H547.995V379.471C547.995 251.605 548.262 255.471 539.862 244.138C534.395 236.671 525.995 231.071 516.529 228.538C512.262 227.471 508.395 226.538 507.729 226.538C507.195 226.538 506.662 242.671 506.395 262.271L505.995 298.138L501.995 304.671C499.462 308.671 495.462 312.671 491.462 315.205C485.329 318.938 483.862 319.205 469.862 319.605L454.795 320.138L454.395 323.605C453.995 327.071 453.729 327.205 439.329 328.938C431.329 330.005 424.262 331.205 423.729 331.605C422.929 332.405 417.195 346.938 415.195 353.205C414.795 354.405 418.395 360.271 423.862 367.205L433.195 379.205L406.395 406.138L379.462 433.071L368.395 424.271L357.195 415.605L346.262 420.271C340.262 422.805 334.395 425.205 333.195 425.605C331.462 426.138 330.529 429.338 329.462 438.138C328.529 444.538 327.729 450.805 327.595 451.871C327.329 453.605 321.862 453.871 289.195 454.271L251.062 454.538L250.129 445.605C248.395 428.005 247.862 426.405 244.129 425.071C242.262 424.405 236.395 421.871 231.062 419.605L221.595 415.471L210.262 424.271L199.062 432.938L145.329 379.205L154.662 367.338C159.862 360.805 163.995 355.071 163.995 354.671C163.995 354.271 161.862 348.805 159.329 342.538L154.795 331.205L141.062 329.471C123.729 327.205 123.995 327.205 123.995 323.338C123.995 320.138 123.862 320.138 108.929 319.605C94.7953 319.205 93.3286 318.938 87.1953 315.205C83.1953 312.671 79.1953 308.671 76.662 304.671L72.662 298.138L72.262 262.271C71.9953 235.738 71.462 226.538 70.262 226.671C69.3286 226.671 65.462 227.605 61.5953 228.671Z" fill=""/>
<path d="M30.9286 532.138C31.3286 544.138 31.9953 548.538 34.3953 553.871C38.262 562.271 45.3286 569.738 53.9953 574.271L60.662 577.871H517.995L524.662 574.271C533.329 569.738 540.395 562.271 544.262 553.871C546.662 548.538 547.329 544.138 547.729 532.138L548.262 517.205H30.3953L30.9286 532.138Z" fill=""/>
<path d="M195.995 630.538H173.862C161.729 630.538 150.662 631.071 149.329 631.871C143.595 634.938 143.462 646.005 149.195 649.071C152.929 651.071 425.729 651.071 429.462 649.071C435.195 646.005 435.062 634.938 429.329 631.871C427.995 631.071 416.929 630.538 404.795 630.538H382.662V599.871H195.995V630.538Z" fill=""/>
</svg>
