<svg width="683" height="683" viewBox="0 0 683 683" fill="none" xmlns="http://www.w3.org/2000/svg">
<path d="M213.333 51.201C145.467 79.4676 72.5333 109.734 51.0667 118.668C29.7333 127.601 10.5333 135.868 8.4 137.201C1.06667 141.601 0 146.268 0 173.068C0 201.201 1.33333 205.734 10.6667 210.534C15.8667 213.201 17.7333 213.201 341.333 213.201C664.933 213.201 666.8 213.201 672 210.534C681.333 205.734 682.667 201.201 682.667 173.201C682.667 145.334 681.333 140.668 672.267 136.001C669.467 134.534 644.133 123.868 615.867 112.134C378 13.3343 345.2 -0.132361 341.067 0.000972102C338.4 0.000972102 287.2 20.5343 213.333 51.201ZM470.667 115.868C476.667 118.934 481.333 126.534 481.333 133.201C481.333 139.868 476.667 147.468 470.667 150.534C465.6 153.201 463.067 153.201 341.2 153.201H217.067L211.733 150.268C198.267 142.668 198.133 124.401 211.467 116.401L216.667 113.201H341.067C463.067 113.201 465.6 113.201 470.667 115.868Z" fill=""/>
<path d="M64 459.868H165.333V253.201H64V459.868Z" fill=""/>
<path d="M517.333 459.868H618.667V253.201H517.333V459.868Z" fill=""/>
<path d="M331.733 282.668C325.2 286.001 321.333 293.468 321.333 302.801V309.868L314.4 313.068C305.733 317.068 292.267 330.268 288.133 338.934C276.267 363.601 280.4 389.734 299.333 408.534C310.4 419.734 326.133 426.534 340.8 426.534C351.467 426.534 361.333 436.134 361.333 446.668C361.333 456.534 351.2 466.534 341.2 466.534C331.467 466.534 321.333 456.401 321.333 446.534C321.333 439.868 316.667 432.268 310.667 429.201C304 425.868 298.667 425.868 292 429.201C270.667 440.001 283.733 483.734 312.667 498.668L321.333 503.201V510.268C321.333 519.734 325.2 527.068 332 530.534C346.667 538.001 361.333 527.868 361.333 510.268V503.201L368.4 499.868C376.933 495.868 390.267 482.801 394.533 474.134C406.4 449.601 402.267 423.334 383.333 404.401C372.133 393.201 356.667 386.534 341.733 386.534C331.467 386.534 321.333 376.668 321.333 366.534C321.333 356.668 331.467 346.534 341.2 346.534C351.467 346.534 361.333 356.401 361.333 366.534C361.333 376.668 371.2 386.534 381.333 386.534C383.6 386.534 387.867 385.334 390.667 383.868C403.067 377.468 404.667 359.734 394.533 338.934C390.133 330.134 376.933 317.068 368.4 313.068L361.333 309.868V302.801C361.333 285.068 346.267 274.934 331.733 282.668Z" fill=""/>
<path d="M49.4667 502.134C39.4667 507.334 37.4667 513.868 37.3333 540.801V559.868H192.267L191.867 537.468C191.333 513.068 190.267 509.334 182.267 503.334C178.533 500.534 177.2 500.534 116.267 500.134C58.9333 499.868 53.6 500.001 49.4667 502.134Z" fill=""/>
<path d="M502.8 502.134C492.8 507.334 490.8 513.868 490.667 540.801V559.868H645.6L645.2 537.468C644.667 513.068 643.6 509.334 635.6 503.334C631.867 500.534 630.533 500.534 569.6 500.134C512.267 499.868 506.933 500.001 502.8 502.134Z" fill=""/>
<path d="M17.3333 597.334C11.6 599.734 5.33333 605.201 2.66667 610.534C0.266667 615.201 0 618.401 0 641.201C0 670.668 1.2 675.068 10.6667 679.868C15.8667 682.534 17.7333 682.534 341.333 682.534C664.933 682.534 666.8 682.534 672 679.868C675.467 678.134 678.267 675.334 680 671.734C682.667 666.668 682.8 664.534 682.4 639.201L682 612.134L677.867 606.934C675.6 604.134 671.733 600.534 669.333 598.801L664.933 595.868L342.8 596.001C134.4 596.001 19.4667 596.534 17.3333 597.334Z" fill=""/>
</svg>
