<svg width="81" height="81" viewBox="0 0 81 81" fill="none" xmlns="http://www.w3.org/2000/svg">
<path d="M43.8145 3.38595C43.8145 2.48937 44.1706 1.62952 44.8046 0.99554C45.4386 0.361563 46.2984 0.00539863 47.195 0.00539863C56.1576 0.0152414 64.7503 3.58005 71.0879 9.91768C77.4254 16.2553 80.9902 24.8482 81 33.8109C81 34.7075 80.6438 35.5674 80.0099 36.2013C79.3759 36.8353 78.5161 37.1915 77.6195 37.1915C76.7229 37.1915 75.8631 36.8353 75.2291 36.2013C74.5952 35.5674 74.239 34.7075 74.239 33.8109C74.2309 26.6408 71.3791 19.7666 66.3091 14.6965C61.2391 9.62646 54.365 6.77456 47.195 6.7665C46.2984 6.7665 45.4386 6.41034 44.8046 5.77636C44.1706 5.14239 43.8145 4.28253 43.8145 3.38595ZM47.195 20.2887C50.7812 20.2887 54.2206 21.7134 56.7565 24.2493C59.2923 26.7852 60.717 30.2246 60.717 33.8109C60.717 34.7075 61.0731 35.5674 61.7071 36.2013C62.3411 36.8353 63.2009 37.1915 64.0975 37.1915C64.994 37.1915 65.8539 36.8353 66.4879 36.2013C67.1218 35.5674 67.478 34.7075 67.478 33.8109C67.4726 28.4331 65.3339 23.2771 61.5313 19.4744C57.7287 15.6717 52.5727 13.533 47.195 13.5276C46.2984 13.5276 45.4386 13.8838 44.8046 14.5178C44.1706 15.1517 43.8145 16.0116 43.8145 16.9082C43.8145 17.8047 44.1706 18.6646 44.8046 19.2986C45.4386 19.9326 46.2984 20.2887 47.195 20.2887ZM77.9339 56.5925C79.8929 58.557 80.993 61.2181 80.993 63.9925C80.993 66.7669 79.8929 69.428 77.9339 71.3925L74.8576 74.9387C47.1713 101.446 -20.2022 34.0881 5.89534 6.31351L9.78292 2.93296C11.7496 1.02862 14.3869 -0.0248604 17.1244 0.000445589C19.8618 0.0257516 22.4792 1.1278 24.4104 3.06818C24.5152 3.17298 30.7792 11.31 30.7792 11.31C32.6379 13.2627 33.6726 15.8566 33.6682 18.5525C33.6638 21.2484 32.6206 23.8389 30.7556 25.7855L26.8409 30.7076C29.0073 35.9715 32.1925 40.7554 36.2134 44.7845C40.2343 48.8136 45.0118 52.0085 50.2712 54.1855L55.2237 50.2472C57.1705 48.3835 59.7605 47.3416 62.4556 47.3378C65.1506 47.334 67.7435 48.3687 69.6956 50.2269C69.6956 50.2269 77.8291 56.4877 77.9339 56.5925ZM73.2823 61.5078C73.2823 61.5078 65.1928 55.2842 65.088 55.1794C64.3915 54.4889 63.4505 54.1014 62.4698 54.1014C61.489 54.1014 60.548 54.4889 59.8516 55.1794C59.7603 55.2741 52.9418 60.7066 52.9418 60.7066C52.4823 61.0724 51.9355 61.3121 51.3552 61.4022C50.7748 61.4923 50.1811 61.4297 49.6323 61.2205C42.8188 58.6836 36.63 54.712 31.4852 49.5747C26.3404 44.4374 22.3598 38.2544 19.8129 31.4445C19.5871 30.8883 19.5134 30.2819 19.5996 29.6878C19.6857 29.0937 19.9285 28.5332 20.303 28.064C20.303 28.064 25.7355 21.242 25.8268 21.1541C26.5173 20.4577 26.9048 19.5167 26.9048 18.5359C26.9048 17.5551 26.5173 16.6141 25.8268 15.9177C25.722 15.8162 19.4985 7.71982 19.4985 7.71982C18.7916 7.08599 17.8691 6.74654 16.92 6.77106C15.9709 6.79557 15.0671 7.18219 14.3939 7.85166L10.5063 11.2322C-8.56646 34.1659 49.8182 89.3128 69.9153 70.3209L72.995 66.7713C73.7166 66.1029 74.1501 65.1799 74.2037 64.1977C74.2573 63.2155 73.9269 62.2509 73.2823 61.5078Z" fill=""/>
</svg>
