<svg width="23" height="22" viewBox="0 0 23 22" fill="none" xmlns="http://www.w3.org/2000/svg">
<path d="M21.6722 0.548425C21.0215 -0.102211 19.967 -0.102211 19.3167 0.548425L11.4649 8.40018L3.61319 0.548425C2.96255 -0.102211 1.908 -0.102211 1.25771 0.548425C0.607077 1.19906 0.607077 2.25361 1.25771 2.9039L9.10947 10.7557L1.25771 18.6074C0.607077 19.2581 0.607077 20.3126 1.25771 20.9629C1.90835 21.6135 2.9629 21.6131 3.61319 20.9629L11.4649 13.1111L19.3167 20.9629C19.9673 21.6131 21.0219 21.6131 21.6722 20.9629C22.3228 20.3123 22.3228 19.2577 21.6722 18.6074L13.8204 10.7557L21.6722 2.9039C22.3228 2.25327 22.3228 1.19871 21.6722 0.548425Z" fill=""/>
</svg>
