<svg width="662" height="640" viewBox="0 0 662 640" fill="none" xmlns="http://www.w3.org/2000/svg">
<path d="M405.333 320H533.333V0H405.333V320ZM458.667 64H437.333V42.6667H458.667V64ZM501.333 64H480V42.6667H501.333V64ZM458.667 117.333H437.333V96H458.667V117.333ZM501.333 117.333H480V96H501.333V117.333ZM458.667 170.667H437.333V149.333H458.667V170.667ZM501.333 170.667H480V149.333H501.333V170.667Z" fill=""/>
<path d="M159.733 37.4667L128 64.1333V320H256V64.1333L224 37.3333C206.4 22.6667 191.867 10.6667 191.733 10.8C191.467 10.8 177.067 22.8 159.733 37.4667ZM224 106.667H160V85.3334H224V106.667ZM224 160H160V138.667H224V160Z" fill=""/>
<path d="M277.333 320H384V117.333H277.333V320Z" fill=""/>
<path d="M21.3333 320H106.667V160H21.3333V320Z" fill=""/>
<path d="M554.667 320H640V170.667H554.667V320Z" fill=""/>
<path d="M0 362.667H661.333V341.333H0V362.667Z" fill=""/>
<path d="M25.7333 416.933C31.4667 435.2 37.3333 451.067 38.5333 452.533C42.6667 457.333 45.6 457.333 60.6667 452.533C82.2667 445.733 83.2 445.867 90.9333 459.2C98.6667 472.533 110 488.4 119.333 499.067C129.2 510.4 132 514.533 132 518.133C132 519.6 127.733 526.533 122.667 533.6C111.733 548.667 110.4 552.667 114.933 557.733C118.4 561.6 166.533 596.667 171.467 598.933C176.933 601.467 181.333 598.133 191.6 584.133C203.467 567.6 204.267 567.333 220.667 574.533C235.333 580.8 254.8 587.067 270.4 590.533C287.2 594.4 288 595.467 288 616.8C288 632.667 288.133 633.6 291.333 636.667L294.533 640H366.8L370 636.667C373.2 633.6 373.333 632.667 373.333 616.8C373.333 595.067 373.733 594.533 393.333 590.133C408.667 586.533 428.8 579.867 443.2 573.333C456.533 567.333 458.133 568 469.733 584.133C480 598.133 484.4 601.467 489.867 598.933C494.8 596.667 542.933 561.6 546.4 557.733C550.933 552.667 549.6 548.667 538.667 533.6C533.6 526.533 529.333 519.6 529.333 518.133C529.333 514.533 532.133 510.4 542 499.067C551.333 488.4 562.667 472.533 570.4 459.2C578.133 445.867 579.067 445.733 600.667 452.533C615.733 457.333 618.667 457.333 622.8 452.533C624 451.067 629.867 435.2 635.6 416.933L646.267 384H533.867L531.467 391.6C522.133 420.933 497.333 457.867 471.867 480C442.533 505.333 408.533 522 370.133 529.6C358 532 350.8 532.533 330.667 532.533C305.067 532.533 293.067 531.067 272.667 525.2C222.267 510.667 179.2 478.667 150.667 434.667C143.733 423.867 133.067 401.733 129.867 391.6L127.467 384H15.0667L25.7333 416.933Z" fill=""/>
</svg>
