<svg width="662" height="654" viewBox="0 0 662 654" fill="none" xmlns="http://www.w3.org/2000/svg">
<path d="M212.131 3.06667C209.065 6.4 208.398 11.8667 210.531 16C211.198 17.3333 216.131 20 221.331 22.1333L230.931 25.7333L214.398 31.4667C193.598 38.6667 162.131 54.2667 143.865 66.4C95.3313 98.8 59.3313 139.733 33.3313 192C-3.602 266.4 -10.1353 352.4 15.198 431.333C20.798 448.8 23.998 453.333 30.5313 453.333C35.0647 453.333 41.198 448.267 41.198 444.533C41.198 443.2 38.798 434.933 35.8647 426C14.6647 360.8 16.9313 288.267 42.1313 224C73.998 142.533 141.731 78.4 225.598 50.1333C233.465 47.4667 240.798 45.3333 241.998 45.3333C243.331 45.3333 241.198 48.9333 236.131 55.6C231.731 61.3333 227.865 67.3333 227.331 69.0667C225.065 76.2667 232.798 84 240.265 82.1333C242.398 81.6 249.331 73.7333 261.065 58C270.798 45.0667 279.198 33.0667 279.865 31.3333C281.465 27.0667 279.598 22.1333 275.598 19.6C270.665 16.4 222.798 0 218.798 0C216.531 0 213.731 1.33333 212.131 3.06667Z" fill=""/>
<path d="M363.198 20.5333C358.665 25.0667 358.665 32.1333 363.198 35.7333C364.931 37.2 370.131 39.0667 374.798 39.8667C432.398 50.8 485.065 77.8667 526.398 117.867C553.998 144.533 572.398 170 588.665 203.333C602.265 231.467 609.998 255.733 615.198 286.667C618.531 306.133 619.331 349.067 616.665 369.067C613.998 389.467 609.065 412.533 607.865 411.067C607.331 410.533 604.665 404.933 601.998 398.8C596.131 385.067 594.131 382.667 588.265 382.667C583.065 382.667 577.198 387.6 577.198 391.867C577.198 396 600.798 449.733 603.465 451.6C604.665 452.533 607.598 453.333 609.865 453.333C613.331 453.333 617.865 450.133 635.331 435.333C646.931 425.333 657.598 416 658.931 414.4C663.598 408.8 660.131 399.867 652.531 397.867C648.931 396.933 644.931 399.067 636.131 406.4L630.798 410.667L631.998 405.733C638.798 377.333 641.598 331.733 638.665 302.133C625.731 177.6 542.931 72.4 425.198 31.3333C410.131 26.1333 384.798 19.6 373.598 18C367.331 17.2 366.398 17.4667 363.198 20.5333Z" fill=""/>
<path d="M289.465 116.933C288.798 118.267 285.598 126.4 282.398 134.933L276.665 150.4L261.865 155.2C253.865 157.733 241.331 162.933 234.131 166.667L221.065 173.333L204.931 166C195.998 162 187.731 158.667 186.531 158.667C185.465 158.667 175.331 167.867 164.265 178.933L143.998 199.333L151.865 217.2L159.865 234.933L154.665 244.533C149.065 254.8 142.531 271.067 139.198 282.667L137.198 290L119.598 296.8L101.865 303.6L101.465 333.6L101.198 363.467L118.798 370.267L136.398 376.933L141.865 392.8C144.798 401.467 150.131 414 153.598 420.533L159.865 432.267L151.998 449.867L144.131 467.333L185.998 509.467L203.865 501.733L221.598 494L235.331 501.067C242.931 504.933 255.331 510.133 262.798 512.533L276.531 517.067L283.465 534.8L290.265 552.667H349.731L356.665 534.8L363.598 516.8L377.331 512.533C384.931 510.133 397.198 505.067 404.398 501.333C411.731 497.733 418.265 494.667 419.198 494.667C419.998 494.667 428.131 498 437.198 502.133L453.731 509.467L495.998 467.2L488.131 450L480.398 432.667L487.465 418.667C491.331 410.933 496.531 398.4 498.931 390.8L503.465 376.933L521.065 370.267L538.531 363.6L538.265 333.6L537.865 303.467L520.398 296.8L502.931 290L499.065 277.333C497.065 270.4 491.998 258 487.865 249.733L480.398 234.933L488.265 217.2L495.998 199.467L453.865 157.6L418.931 173.333L405.065 166.267C397.465 162.4 385.865 157.467 379.198 155.467C372.665 153.467 366.265 151.333 365.198 150.8C364.131 150.133 360.265 141.867 356.531 132.133L349.865 114.667H320.265C293.331 114.667 290.531 114.933 289.465 116.933ZM345.731 207.467C371.731 212.4 395.198 225.6 414.131 245.733C424.798 257.2 429.598 264.267 436.665 279.2C469.465 348.533 433.331 432.533 360.531 455.867C313.998 470.8 266.265 460 231.331 426.667C204.265 400.933 191.198 369.867 191.465 332C191.731 297.6 204.531 267.067 229.065 242.533C259.998 211.6 301.465 199.067 345.731 207.467Z" fill=""/>
<path d="M327.598 274.667C326.398 275.467 324.531 278.533 323.331 281.733C320.798 288.533 295.865 381.867 295.865 384.533C295.865 385.467 297.065 387.867 298.665 389.867C302.265 394.533 310.131 394.8 314.131 390.267C315.998 388.267 321.065 371.467 330.398 336.667C337.731 308.8 343.865 284.667 343.865 282.933C343.865 276.133 333.865 271.067 327.598 274.667Z" fill=""/>
<path d="M272.398 290.533C261.065 298.8 229.865 326.267 227.998 329.467C226.931 331.467 226.531 334.267 226.931 336.267C227.865 339.867 270.531 376.8 277.198 379.6C281.465 381.467 286.131 380.4 289.065 376.933C291.065 374.533 291.465 368 289.731 365.067C289.065 363.867 280.798 356.533 271.465 348.667C262.131 340.8 254.665 333.867 254.798 333.333C255.065 332.8 262.931 325.867 272.265 318C292.931 300.8 294.665 297.6 287.465 289.6C283.731 285.6 278.665 285.867 272.398 290.533Z" fill=""/>
<path d="M352.665 289.467C349.331 292.133 348.131 297.067 349.998 301.733C350.398 302.8 358.531 310.267 367.998 318.133C377.465 326.133 385.065 333.067 384.798 333.733C384.665 334.4 376.665 341.733 367.198 349.867C349.598 364.933 347.998 367.2 349.865 374.267C350.798 378.4 358.398 381.867 362.798 380.133C368.398 377.867 411.065 340.667 412.398 336.933C413.198 334.667 413.198 332.133 412.398 330C411.731 328.133 400.665 317.733 387.331 306.667C361.598 285.2 359.465 284.133 352.665 289.467Z" fill=""/>
<path d="M76.2647 520C69.598 522.667 69.3313 527.333 73.7313 563.333C76.798 587.2 77.198 588.8 80.5313 591.6C85.0647 595.6 89.8647 595.467 94.1313 591.2C97.4647 587.867 97.4647 587.6 96.5313 575.067L95.598 562.267L106.931 572.4C155.998 616 215.998 643.067 282.531 651.467C307.065 654.533 349.331 653.467 373.065 649.333C427.065 639.867 475.731 618.267 518.131 585.067C536.131 570.933 568.665 537.6 569.865 532C571.598 523.867 562.931 516.667 555.731 520.267C553.865 521.2 547.598 527.2 541.998 533.6C496.531 585.2 428.531 620.8 358.798 629.867C339.998 632.267 305.065 632.667 287.198 630.667C224.798 623.467 164.798 596.533 120.131 555.467C109.998 546.133 109.998 545.867 121.331 548C133.331 550.267 136.931 550.133 140.531 546.667C144.665 542.8 144.798 537.2 140.931 532.8C138.131 529.733 134.665 528.8 108.665 524C92.6647 521.067 79.4647 518.667 79.3313 518.8C79.3313 518.8 77.8647 519.333 76.2647 520Z" fill=""/>
</svg>
