<svg width="52" height="47" viewBox="0 0 52 47" fill="none" xmlns="http://www.w3.org/2000/svg">
<path d="M41.1667 0H10.8333C7.96121 0.00339224 5.20771 1.12988 3.17681 3.13238C1.14591 5.13487 0.00344036 7.84987 0 10.6818V36.3182C0.00344036 39.1501 1.14591 41.8651 3.17681 43.8676C5.20771 45.8701 7.96121 46.9966 10.8333 47H41.1667C44.0388 46.9966 46.7923 45.8701 48.8232 43.8676C50.8541 41.8651 51.9966 39.1501 52 36.3182V10.6818C51.9966 7.84987 50.8541 5.13487 48.8232 3.13238C46.7923 1.12988 44.0388 0.00339224 41.1667 0ZM10.8333 4.27273H41.1667C42.464 4.27524 43.731 4.66051 44.8044 5.37894C45.8778 6.09738 46.7087 7.11611 47.19 8.30405L30.5977 24.6665C29.3766 25.8656 27.7234 26.5389 26 26.5389C24.2766 26.5389 22.6234 25.8656 21.4023 24.6665L4.81 8.30405C5.29132 7.11611 6.12216 6.09738 7.1956 5.37894C8.26904 4.66051 9.53597 4.27524 10.8333 4.27273ZM41.1667 42.7273H10.8333C9.10943 42.7273 7.45613 42.052 6.23714 40.8501C5.01815 39.6482 4.33333 38.018 4.33333 36.3182V13.8864L18.3387 27.6873C20.3724 29.6875 23.1276 30.8107 26 30.8107C28.8724 30.8107 31.6276 29.6875 33.6613 27.6873L47.6667 13.8864V36.3182C47.6667 38.018 46.9818 39.6482 45.7629 40.8501C44.5439 42.052 42.8906 42.7273 41.1667 42.7273Z" fill=""/>
</svg>
