<svg width="772" height="680" viewBox="0 0 772 680" fill="none" xmlns="http://www.w3.org/2000/svg">
<path d="M319.968 14.1205C159.887 86.8181 197.007 321.152 371.008 338.166C473.089 348.22 563.569 256.962 554.289 154.102C543.462 41.1887 421.275 -32.2823 319.968 14.1205ZM401.168 76.7642C401.168 85.2714 404.262 92.2318 408.128 92.2318C419.728 92.2318 439.835 115.433 439.835 127.807C439.835 142.501 417.408 141.728 411.995 127.034C405.808 111.566 365.595 112.34 359.408 127.807C352.448 145.595 359.408 152.555 393.435 161.836C429.008 171.116 447.568 188.131 447.568 209.785C447.568 229.12 426.688 254.641 411.222 254.641C405.808 254.641 401.168 260.055 401.168 266.242C401.168 272.429 394.208 277.843 385.702 277.843C377.195 277.843 370.235 272.429 370.235 266.242C370.235 260.055 365.595 254.641 359.408 254.641C347.035 254.641 323.835 226.026 323.835 210.559C323.835 193.544 352.448 198.958 357.088 216.746C363.275 239.174 412.768 235.307 412.768 212.106C412.768 201.278 404.262 193.544 382.608 186.584C338.528 172.663 330.795 163.383 333.115 131.674C334.661 111.566 340.075 101.512 353.221 96.0987C362.501 92.2318 370.235 82.1778 370.235 75.2174C370.235 66.7103 376.421 61.2966 385.702 61.2966C395.755 61.2966 401.168 66.7103 401.168 76.7642Z" fill=""/>
<path d="M87.9669 374.515C41.5667 393.85 2.12656 409.317 1.35322 409.317C-11.7935 409.317 74.8202 610.396 89.5136 615.81C94.927 618.13 115.034 610.396 134.367 598.795L169.941 578.687L270.474 628.957C332.341 660.666 381.062 680 395.755 680C425.142 680 467.675 656.025 637.036 542.339C770.823 452.627 788.61 432.519 760.77 401.584C753.037 393.076 739.116 386.116 729.063 386.116C719.783 386.116 672.609 412.411 625.436 444.893C578.262 476.601 527.996 508.31 513.302 514.497C465.355 534.605 269.701 523.004 269.701 499.803C269.701 495.936 278.981 495.162 291.354 497.483C302.955 500.576 350.128 505.216 395.755 507.536C468.449 511.403 480.822 509.857 493.969 498.256C512.529 481.242 514.075 461.134 497.062 447.213C490.102 441.799 455.302 430.972 419.728 424.012C367.915 413.184 348.581 405.45 326.155 386.116C260.421 328.112 208.607 325.792 87.9669 374.515Z" fill=""/>
<path d="M510.209 345.127C504.022 347.447 478.502 362.915 452.982 378.382C411.995 404.677 409.675 407.77 425.915 412.411C467.675 423.238 497.835 417.051 540.369 389.209C594.502 352.861 592.182 355.181 579.036 347.447C566.662 338.94 527.996 338.166 510.209 345.127Z" fill=""/>
<path d="M611.516 362.915C601.463 367.555 577.489 381.476 557.382 395.396C538.049 409.317 518.715 423.238 514.075 426.332C509.435 429.425 510.209 435.612 516.395 443.346C521.809 450.306 524.902 464.227 523.356 475.055C519.489 494.389 519.489 494.389 539.596 482.015C637.036 418.598 687.303 383.022 687.303 377.609C687.303 368.328 660.236 355.181 643.223 355.954C635.489 355.954 621.569 359.048 611.516 362.915Z" fill=""/>
</svg>
