<svg width="42" height="38" viewBox="0 0 42 38" fill="none" xmlns="http://www.w3.org/2000/svg">
<path d="M39.7506 4.41666H2.25057C1.07001 4.41666 0.167236 3.51389 0.167236 2.33333C0.167236 1.15278 1.07001 0.25 2.25057 0.25H39.7506C40.9311 0.25 41.8339 1.15278 41.8339 2.33333C41.8339 3.51389 40.9311 4.41666 39.7506 4.41666Z" fill=""/>
<path d="M39.7506 15.5277H2.25057C1.07001 15.5277 0.167236 14.625 0.167236 13.4444C0.167236 12.2639 1.07001 11.3611 2.25057 11.3611H39.7506C40.9311 11.3611 41.8339 12.2639 41.8339 13.4444C41.8339 14.625 40.9311 15.5277 39.7506 15.5277Z" fill=""/>
<path d="M39.7506 26.6388H2.25057C1.07001 26.6388 0.167236 25.7361 0.167236 24.5555C0.167236 23.3749 1.07001 22.4722 2.25057 22.4722H39.7506C40.9311 22.4722 41.8339 23.3749 41.8339 24.5555C41.8339 25.7361 40.9311 26.6388 39.7506 26.6388Z" fill=""/>
<path d="M39.7506 37.7499H2.25057C1.07001 37.7499 0.167236 36.8471 0.167236 35.6666C0.167236 34.486 1.07001 33.5833 2.25057 33.5833H39.7506C40.9311 33.5833 41.8339 34.486 41.8339 35.6666C41.8339 36.8471 40.9311 37.7499 39.7506 37.7499Z" fill=""/>
</svg>
