<svg width="682" height="616" viewBox="0 0 682 616" fill="none" xmlns="http://www.w3.org/2000/svg">
<path d="M172.35 1.48284C125.95 9.08284 88.7502 28.5495 56.0835 62.2828C28.8835 90.4162 11.2835 123.35 3.1502 161.216C-0.983135 180.816 -1.11647 217.083 3.1502 236.283C8.3502 260.149 18.4835 286.149 29.1502 303.083L32.7502 308.816H106.484L180.084 308.683L194.084 285.349C202.084 271.883 209.684 260.683 211.817 259.216C217.684 254.949 226.084 254.55 232.35 258.15C236.884 260.683 241.817 267.616 266.084 305.616C281.684 330.149 294.75 350.149 295.284 350.149C295.684 350.149 313.684 312.816 335.284 267.083C356.75 221.483 375.817 182.016 377.417 179.35C385.817 166.283 403.55 167.616 411.95 181.883C413.95 185.349 430.084 215.083 447.817 248.149L480.084 308.149L564.35 308.549L648.484 308.816L653.817 299.483C690.217 236.549 691.15 164.816 656.484 103.883C626.884 52.0162 577.55 15.8828 519.017 3.21617C499.55 -0.91716 463.284 -0.91716 443.95 3.21617C410.217 10.5495 380.484 24.6828 351.817 46.9495C344.884 52.4162 340.084 55.2162 339.017 54.6828C338.217 54.0162 334.217 51.0828 330.35 47.8828C303.684 26.1495 270.75 10.4162 237.417 3.21617C221.15 -0.250493 188.217 -1.05049 172.35 1.48284Z" fill=""/>
<path d="M364.75 298.416C311.55 410.949 313.95 406.416 307.417 410.016C300.75 413.749 292.484 413.349 286.484 409.083C284.35 407.616 269.95 386.283 253.417 360.416C237.417 335.083 223.817 314.549 223.417 314.816C222.884 315.083 218.75 321.616 214.217 329.216C208.884 338.016 204.35 344.016 201.684 345.616C197.684 348.016 193.417 348.149 131.017 348.816L64.6169 349.483L197.817 481.749C315.284 598.283 331.684 614.016 336.084 614.95C348.084 617.216 341.417 623.216 483.417 481.616C555.684 409.749 615.017 350.416 615.15 349.749C615.417 349.216 581.684 348.816 540.084 348.816C455.684 348.816 458.217 349.083 452.084 339.616C450.35 336.949 437.15 312.949 422.75 286.149C408.484 259.483 396.217 237.083 395.55 236.416C395.017 235.883 381.15 263.749 364.75 298.416Z" fill=""/>
</svg>
