<svg width="671" height="670" viewBox="0 0 671 670" fill="none" xmlns="http://www.w3.org/2000/svg">
<path d="M231.036 1.25385C207.969 6.72051 198.502 28.3205 209.569 50.1872C213.036 56.7205 214.502 58.3205 221.969 62.0538C230.769 66.7205 239.569 67.7872 248.236 65.2539C252.236 64.0539 252.769 64.4539 260.636 73.7872L268.769 83.5205V106.721C268.769 133.654 269.436 135.787 278.102 135.787C286.902 135.787 287.436 133.921 287.436 103.787C287.436 74.3205 288.502 77.9205 274.636 61.1205L266.369 50.9872L269.036 43.1205C275.169 24.7205 264.502 5.12051 245.969 1.25385C238.502 -0.346154 237.969 -0.346154 231.036 1.25385Z" fill=""/>
<path d="M409.702 1.65389C401.702 3.78722 394.369 9.65389 390.102 17.2539C387.302 22.0539 386.769 24.8539 386.769 33.1206C386.769 40.0539 387.569 44.4539 389.169 47.3872L391.436 51.7872L382.102 64.1872L372.769 76.7206V102.321C372.769 128.187 373.302 131.787 377.969 135.387C379.169 136.321 382.369 137.121 385.036 137.121C393.436 137.121 394.102 134.854 394.102 107.787V84.4539L408.769 66.0539L417.836 66.3206C429.836 66.7206 436.502 63.9206 443.969 55.6539C453.702 44.8539 455.036 32.3206 448.102 17.5206C444.236 9.12055 436.769 3.25389 427.302 1.25389C419.169 -0.479447 417.836 -0.479447 409.702 1.65389Z" fill=""/>
<path d="M319.436 47.1206C311.302 49.6539 304.369 55.7872 300.769 63.3872C296.769 71.9206 297.436 85.5206 302.102 94.9872C305.036 100.721 306.636 102.054 313.836 105.521L322.102 109.387V120.987C322.102 134.454 323.702 137.121 331.836 137.121C338.769 137.121 340.769 133.654 340.769 121.121L340.902 111.121L347.836 107.121C357.569 101.387 362.502 93.1206 363.169 80.8539C363.702 72.7206 363.302 70.7206 359.569 63.1206C354.902 53.6539 350.369 49.7872 341.169 46.9872C333.569 44.7206 327.169 44.7206 319.436 47.1206Z" fill=""/>
<path d="M478.902 47.1205C467.436 51.1205 460.236 60.0539 457.836 72.5872L456.369 80.7205L445.702 85.9205C439.702 88.8539 433.302 92.5872 431.169 94.1872C427.436 97.3872 427.436 97.3872 427.436 113.654C427.436 132.054 428.502 134.454 436.502 134.454C443.702 134.454 446.102 130.721 446.102 119.254V109.387L463.702 99.5205L466.502 102.187C474.236 109.121 487.036 112.054 497.436 109.121C501.169 108.054 506.102 105.121 510.102 101.521C520.502 92.1872 523.436 78.9872 518.102 64.7205C512.102 48.8539 495.302 41.2539 478.902 47.1205Z" fill=""/>
<path d="M168.236 49.2539C146.369 54.5872 137.036 77.7872 148.369 98.5872C151.702 104.854 152.236 105.254 162.369 108.454C168.236 110.321 175.702 111.787 179.169 111.787C185.436 111.787 195.436 108.054 199.702 104.187C201.702 102.321 202.636 102.587 209.302 106.454L216.769 110.587V120.987C216.769 133.787 218.636 137.121 225.969 137.121C234.369 137.121 235.436 134.721 235.436 116.187C235.436 97.6539 235.702 98.0539 219.836 89.7872C210.369 84.9872 210.102 84.5872 210.102 79.7872C210.102 68.4539 203.036 57.1206 192.502 51.6539C186.502 48.5872 175.302 47.5206 168.236 49.2539Z" fill=""/>
<path d="M63.969 150.587C45.169 157.787 38.6357 177.387 48.5023 197.121C51.569 203.254 53.3023 204.987 59.3023 208.054C64.369 210.721 68.6357 211.787 73.4357 211.787H80.2357L85.3023 221.387C93.8357 237.521 93.3023 237.121 112.102 237.121C130.502 237.121 132.769 236.054 132.769 227.387C132.769 220.454 129.169 218.454 117.169 218.454H107.436L104.102 210.854C101.169 204.321 100.902 203.121 102.636 201.254C106.369 197.121 110.102 187.121 110.102 181.121C110.102 171.521 107.702 165.254 101.169 158.321C91.4357 147.921 77.969 145.121 63.969 150.587Z" fill=""/>
<path d="M575.969 150.587C563.836 155.254 556.902 164.187 555.836 177.121C555.036 185.654 556.636 191.921 561.569 199.121L564.769 203.921L560.636 211.121L556.502 218.454H546.502C535.569 218.454 531.836 219.787 530.236 224.187C528.902 227.787 532.769 236.321 536.636 238.454C538.102 239.121 546.102 239.787 554.502 239.787C572.236 239.787 571.836 239.921 580.102 224.054C584.902 214.854 585.302 214.454 589.969 214.454C601.836 214.454 612.636 207.654 618.502 196.587C621.969 189.654 622.236 174.987 618.902 167.387C611.569 150.721 593.836 143.654 575.969 150.587Z" fill=""/>
<path d="M226.236 164.587C223.702 167.787 223.436 170.054 223.302 184.987V201.787L217.036 205.921C213.569 208.187 208.636 213.121 206.102 216.854L201.436 223.654L184.636 223.787C169.702 223.787 167.436 224.054 164.236 226.587C160.369 229.654 159.569 234.987 162.636 239.254C164.236 241.387 166.769 241.921 181.036 242.454L197.436 243.12L198.236 271.787H181.436C166.502 271.787 164.502 272.054 162.102 274.454C159.036 277.52 158.636 283.521 161.302 287.254C163.036 289.521 165.436 289.92 180.369 290.454L197.436 291.121V321.787L180.369 322.454C165.436 322.987 163.036 323.387 161.302 325.654C158.502 329.521 159.036 334.987 162.502 338.187C165.302 340.854 167.036 341.121 181.836 341.121H198.236L197.436 376.454L180.369 377.121C165.436 377.654 163.036 378.054 161.302 380.32C158.502 384.187 159.036 389.654 162.502 392.854C165.302 395.521 167.036 395.787 181.836 395.787H198.236L197.436 427.121L180.369 427.787C165.436 428.321 163.036 428.721 161.302 430.987C158.236 435.254 159.036 440.587 162.902 443.654C166.102 446.187 168.236 446.454 183.436 446.454H200.502L202.102 450.454C204.236 455.654 212.902 464.321 218.102 466.454L222.102 468.054V485.121C222.102 500.321 222.369 502.454 224.902 505.654C227.969 509.521 233.302 510.321 237.569 507.254C239.702 505.654 240.236 503.121 240.769 488.854L241.436 472.454L270.102 471.654V488.321C270.102 503.787 270.369 505.254 273.036 507.787C276.369 510.854 281.836 511.254 285.569 508.587C287.836 506.854 288.236 504.454 288.769 489.521L289.436 472.454H320.102L320.502 488.054C320.769 500.854 321.169 503.787 322.769 503.787C323.836 503.787 324.769 504.721 324.769 505.787C324.769 511.654 334.769 515.254 340.236 511.254C342.502 509.521 342.902 507.121 343.436 492.187L344.102 475.121H374.769L375.436 492.187C375.969 507.121 376.369 509.521 378.636 511.254C382.502 514.054 387.969 513.521 391.169 510.054C393.836 507.254 394.102 505.521 394.102 490.721V474.321L425.436 475.121L426.102 492.187C426.636 507.121 427.036 509.521 429.302 511.254C433.569 514.321 438.902 513.521 441.969 509.654C444.502 506.454 444.769 504.187 444.769 489.254L444.902 472.454L450.369 469.121C455.569 465.921 466.102 454.321 466.102 451.654C466.102 450.987 474.102 450.454 483.836 450.454C500.769 450.454 501.836 450.321 504.502 447.387C507.836 443.787 508.236 438.854 505.569 434.987C503.836 432.721 501.436 432.321 486.502 431.787L469.436 431.121L468.636 399.787H485.169C500.636 399.787 501.836 399.654 504.502 396.721C507.836 393.121 508.236 388.187 505.569 384.32C503.836 382.054 501.436 381.654 486.502 381.121L469.436 380.454V349.787L486.502 349.121C501.436 348.587 503.836 348.187 505.569 345.921C508.369 342.054 507.836 336.587 504.369 333.387C501.569 330.721 499.836 330.454 485.036 330.454H468.636L469.436 295.121L486.502 294.454C501.436 293.92 503.836 293.521 505.569 291.254C508.369 287.387 507.836 281.92 504.369 278.72C501.569 276.054 499.836 275.787 485.036 275.787H468.636L469.436 244.454L486.502 243.787C501.436 243.254 503.836 242.854 505.569 240.587C508.636 236.321 507.836 230.987 503.969 227.921C500.769 225.387 498.636 225.12 483.436 225.12H466.502L464.902 221.654C461.969 215.121 456.769 209.52 450.769 206.32L444.769 203.12V186.32C444.769 171.254 444.502 169.121 441.969 165.921C438.902 162.054 433.569 161.254 429.302 164.32C427.169 165.92 426.636 168.454 426.102 182.721L425.436 199.12L395.436 199.921V183.387C395.436 167.92 395.302 166.72 392.369 164.054C388.769 160.72 383.836 160.321 379.969 162.987C377.702 164.721 377.302 167.12 376.769 182.054L376.102 199.12H345.436L344.769 182.054C344.236 167.12 343.836 164.721 341.569 162.987C337.836 160.321 331.836 160.721 328.769 163.787C326.369 166.187 326.102 168.187 326.102 183.12V199.921L293.436 199.12L292.769 182.054C292.236 167.12 291.836 164.721 289.569 162.987C285.702 160.187 280.236 160.72 277.036 164.187C274.369 166.987 274.102 168.72 274.102 183.52V199.921L242.769 199.12L242.102 182.054C241.569 167.12 241.169 164.721 238.902 162.987C234.636 159.921 229.302 160.72 226.236 164.587ZM414.369 255.387C416.636 257.387 416.769 261.654 416.769 335.521C416.769 406.321 416.502 413.787 414.502 416.054C412.502 418.32 408.236 418.454 334.369 418.454C263.569 418.454 256.102 418.187 253.836 416.187C251.569 414.187 251.436 409.921 251.436 336.054C251.436 265.254 251.702 257.787 253.702 255.521C255.702 253.254 259.969 253.12 333.836 253.12C404.636 253.12 412.102 253.387 414.369 255.387Z" fill=""/>
<path d="M271.436 398.454H398.102V271.787H271.436V398.454Z" fill=""/>
<path d="M623.169 210.321C613.702 214.054 609.302 217.787 605.569 225.387C601.969 232.587 601.169 240.987 603.302 248.454C604.369 252.321 603.969 252.987 594.636 260.854L584.902 269.121H561.836C534.502 269.121 532.769 269.654 532.769 279.254C532.769 283.387 533.569 285.921 535.436 287.787C537.969 290.321 539.836 290.454 564.502 290.454C594.236 290.454 590.769 291.521 607.702 277.521L617.969 268.987L622.369 271.254C625.169 272.721 629.836 273.654 635.436 273.654C661.569 273.787 675.969 248.321 663.436 223.787C656.369 210.054 638.902 204.187 623.169 210.321Z" fill=""/>
<path d="M21.7023 211.521C7.56901 216.587 0.369006 226.987 0.235672 242.054C0.235672 258.987 11.969 273.121 27.8357 275.121C33.169 275.787 36.769 275.387 42.769 273.387L50.6357 270.721L63.569 281.254L76.369 291.787H103.702C128.502 291.787 131.169 291.521 133.169 289.387C136.636 285.654 136.102 276.854 132.369 273.387C129.436 270.587 128.102 270.454 106.236 270.454H83.3023L73.569 262.187C64.2357 254.321 63.8357 253.654 64.9023 249.787C67.0357 242.321 66.2357 233.921 62.6357 226.721C55.3023 211.787 38.369 205.521 21.7023 211.521Z" fill=""/>
<path d="M579.436 303.921C570.502 307.921 565.569 312.187 562.769 318.321L560.369 323.787H548.769C535.436 323.787 532.769 325.387 532.769 333.521C532.769 340.454 536.236 342.454 548.769 342.454L558.769 342.587L562.769 349.521C568.502 359.254 576.769 364.187 589.036 364.854C597.302 365.387 599.169 364.987 606.902 361.121C617.036 356.187 621.436 350.587 623.702 339.521C626.769 324.721 620.236 309.654 608.236 304.054C600.102 300.187 587.702 300.187 579.436 303.921Z" fill=""/>
<path d="M60.9023 307.921C51.3023 312.721 46.9023 318.321 44.5023 328.854C42.5023 337.921 44.5023 348.587 49.4357 356.187C54.2357 363.254 64.1023 367.787 74.9023 367.787C88.9023 367.787 104.502 357.654 108.102 346.321C108.902 344.187 110.369 343.787 119.169 343.787C132.102 343.787 135.436 341.921 135.436 334.454C135.436 326.854 132.236 325.121 118.369 325.121C109.036 325.121 107.169 324.721 106.502 322.721C100.236 305.521 79.4357 298.721 60.9023 307.921Z" fill=""/>
<path d="M63.8357 385.121L51.4357 394.587L47.169 392.187C40.1023 388.454 25.7023 388.987 17.4357 393.254C-5.49766 404.987 -5.89766 438.987 16.769 451.787C25.0357 456.321 38.6357 456.454 47.7023 452.054C61.0357 445.521 66.9023 435.121 65.8357 420.587L65.0357 412.054L74.9023 404.587L84.6357 397.121H107.702C134.769 397.121 136.769 396.454 136.769 387.654C136.769 383.787 135.836 381.387 133.436 379.121C130.236 375.787 130.102 375.787 103.169 375.787H76.1023L63.8357 385.121Z" fill=""/>
<path d="M536.369 378.187C535.036 379.521 534.102 382.854 534.102 385.521C534.102 393.787 536.502 394.454 563.436 394.454H586.769L605.169 409.121L604.902 418.321C604.502 428.987 606.902 435.654 613.169 442.187C620.102 449.387 626.902 452.321 636.769 452.321C659.702 452.454 674.636 434.454 670.102 412.587C668.102 402.721 663.969 397.121 656.102 393.121C647.436 388.987 628.102 388.321 621.169 392.187L616.769 394.454L604.369 385.121L591.836 375.787H565.169C541.036 375.787 538.369 376.054 536.369 378.187Z" fill=""/>
<path d="M96.2357 429.787C95.169 430.854 91.169 437.787 87.3023 445.121C80.5023 458.187 80.2357 458.454 75.569 458.454C69.7023 458.454 59.969 462.721 55.0357 467.521C41.969 479.787 42.1023 503.387 55.169 516.454C63.7023 524.987 77.4357 527.387 90.2357 522.587C104.636 517.121 110.769 508.187 110.769 492.454C110.769 481.387 108.902 475.921 103.169 469.521L100.502 466.721L110.369 449.121H120.636C133.436 449.121 136.769 447.254 136.769 439.921C136.769 436.721 135.702 433.521 133.969 431.254C131.302 427.787 131.036 427.787 114.769 427.787C101.836 427.787 97.8357 428.187 96.2357 429.787Z" fill=""/>
<path d="M537.702 431.521C534.636 434.854 534.902 441.921 538.102 445.121C540.369 447.387 542.502 447.787 551.436 447.787H561.969L566.902 456.587L571.702 465.254L569.036 468.187C562.102 475.921 559.169 488.721 562.102 499.121C563.169 502.854 566.102 507.787 569.702 511.787C579.169 522.321 592.236 525.121 606.502 519.787C625.436 512.721 632.502 492.321 622.769 473.121C618.769 465.254 613.036 462.054 598.102 459.521L589.036 457.921L583.969 447.254C581.036 441.387 577.302 434.987 575.702 432.854C572.502 429.121 572.502 429.121 556.236 429.121C542.102 429.121 539.569 429.387 537.702 431.521Z" fill=""/>
<path d="M272.236 537.387C270.502 539.787 270.102 544.721 270.102 563.521V586.721L261.969 596.454C254.102 605.787 253.569 606.187 249.569 604.987C237.969 601.654 222.769 606.187 216.102 615.121C205.969 628.321 207.169 648.321 218.636 660.854C224.902 667.921 237.302 671.387 248.102 669.121C268.769 664.854 279.569 646.587 273.036 627.254L270.369 619.387L291.436 593.521V541.654L287.702 538.054C282.769 533.387 275.169 533.121 272.236 537.387Z" fill=""/>
<path d="M324.369 536.854C322.636 538.721 322.102 542.054 322.102 550.987C322.102 560.721 321.702 562.721 319.836 563.387C318.502 563.921 315.036 565.921 311.969 567.921C296.502 578.454 297.436 608.587 313.569 620.187C316.502 622.187 322.102 624.454 326.236 625.387C347.836 629.921 366.102 615.254 366.102 593.787C366.102 587.254 365.302 583.787 361.969 577.121C358.102 569.387 357.036 568.454 349.302 564.854L340.769 560.854V550.587C340.769 537.787 338.902 534.454 331.569 534.454C328.369 534.454 325.702 535.387 324.369 536.854Z" fill=""/>
<path d="M377.702 536.854C375.702 538.987 375.436 542.987 375.436 565.787V592.187L384.769 604.721L394.102 617.121L392.102 621.254C388.769 627.521 388.236 637.121 390.502 645.254C394.902 659.921 406.102 668.187 421.969 668.187C435.702 668.187 446.102 662.321 451.569 651.521C457.302 640.454 455.569 623.654 447.969 614.587C443.169 608.854 429.836 604.854 417.836 605.387L409.036 605.787L394.102 587.121V563.787C394.102 536.721 393.436 534.454 384.902 534.454C381.702 534.454 379.036 535.387 377.702 536.854Z" fill=""/>
<path d="M431.036 536.854C429.169 538.854 428.769 542.321 428.769 555.387C428.769 571.521 428.769 571.521 432.502 574.721C434.636 576.321 441.169 580.187 447.169 583.121C457.836 588.187 458.102 588.454 458.102 593.121C458.236 602.721 466.369 615.12 475.969 620.054C483.702 624.187 497.836 624.187 506.369 620.054C519.169 613.787 523.969 606.054 524.102 591.787C524.102 583.521 523.436 580.454 520.369 574.187L516.636 566.454L505.969 563.121C500.102 561.254 492.502 559.787 489.036 559.787C482.236 559.787 472.502 563.654 467.836 568.054L465.036 570.721L447.436 560.854V550.587C447.436 537.787 445.569 534.454 438.236 534.454C435.036 534.454 432.369 535.387 431.036 536.854Z" fill=""/>
<path d="M218.902 540.054C217.436 542.187 216.769 546.187 216.769 553.387V563.787L209.436 567.121L202.102 570.321L197.302 567.121C183.836 558.054 166.769 559.521 155.702 570.854C146.102 580.587 143.702 593.254 148.769 606.854C155.969 625.921 177.036 633.121 196.102 622.721C204.502 618.187 209.036 609.787 209.836 597.787L210.369 589.521L219.969 584.454C235.836 576.054 235.436 576.587 235.436 557.787C235.436 543.787 235.169 541.254 233.036 539.387C229.302 536.054 221.436 536.454 218.902 540.054Z" fill=""/>
</svg>
