<svg width="641" height="640" viewBox="0 0 641 640" fill="none" xmlns="http://www.w3.org/2000/svg">
<path d="M307.666 2.0665C294.733 6.4665 284.733 15.1332 279.133 26.9998C274.2 37.5332 274.2 53.7998 279.133 64.3332C283.933 74.5998 289.4 80.4665 299.266 85.7998C307.133 90.0665 308.466 90.3332 320.333 90.3332C332.2 90.3332 333.533 90.0665 341.4 85.7998C351.266 80.4665 356.733 74.5998 361.533 64.3332C366.466 53.7998 366.466 37.5332 361.533 26.9998C354.066 11.2665 339.666 1.6665 322.466 0.733166C317 0.599832 310.733 1.13317 307.666 2.0665Z" fill=""/>
<path d="M196.2 71.9332C176.466 82.0665 175.4 110.067 194.466 121.133C214.2 132.733 237.533 119.533 237.666 96.5999C237.666 80.9999 225 68.3332 209.266 68.3332C205.533 68.3332 200.866 69.6665 196.2 71.9332Z" fill=""/>
<path d="M420.333 70.4665C409.666 75.1332 403 85.2665 403 96.9999C403 119.533 426.6 132.733 446.2 121.133C459.533 113.267 463.933 95.6665 455.666 82.3332C448.333 70.4665 432.466 65.1332 420.333 70.4665Z" fill=""/>
<path d="M299.533 119.533C270.733 126.066 245.666 145.8 232.866 171.667C225.666 186.467 222.733 197.667 222.466 211.8C222.333 221.4 222.733 223.133 226.066 228.2C233.4 239.266 252.2 248.2 279 253.133C288.6 255 298.466 255.533 320.333 255.667C345 255.667 351.133 255.267 364.2 252.6C390.6 247.267 407.4 239.133 414.6 228.066C417.933 223.133 418.333 221.4 418.2 211.8C417.933 197.533 415 186.466 407.4 171C402.2 160.466 399.4 156.466 389.8 147C376.466 133.933 367.666 128.333 351.4 122.6C341.4 119.133 337.266 118.6 323.666 118.2C313.266 117.8 304.866 118.333 299.533 119.533Z" fill=""/>
<path d="M200.333 143.266C184.066 145.133 165 157.666 156.066 172.333C151.933 179.266 148.466 190.2 147.666 199.533C147 206.2 147.266 208.466 149.533 211.933C155.133 220.733 172.866 227.666 194.066 229.266L205.8 230.066L204.733 226.2C203 220.2 203.933 200.6 206.2 190.466C209 178.333 215.133 163.4 221 154.333C223.533 150.2 225.666 146.333 225.666 145.666C225.666 143.133 212.333 141.8 200.333 143.266Z" fill=""/>
<path d="M425.666 142.6C418.466 143.266 415 144.2 415 145.666C415 146.333 417.133 150.2 419.666 154.333C425.533 163.4 431.533 178.333 434.466 190.466C436.866 200.6 437.666 220.066 435.933 226.2L434.866 230.066L446.6 229.266C467.8 227.666 485.533 220.733 491.133 211.933C493.4 208.333 493.666 206.2 493 199.266C491 177.533 478.2 158.866 458.6 149C448.733 144.066 436.333 141.666 425.666 142.6Z" fill=""/>
<path d="M53.933 166.6C52.333 167 48.5997 169.4 45.7997 172.066C38.9997 178.466 37.6663 184.866 41.133 193.4C46.9997 207.533 64.0663 210.066 74.8663 198.466C77.933 195.133 78.733 195 91.933 195H105.666V301.667H124.333V242.467C124.333 186.2 124.2 183.133 121.8 180.2C119.4 177.133 118.466 177 98.0663 176.6L76.9997 176.2L72.8663 172.2C70.5997 170.066 66.733 167.666 64.1997 167C59.533 165.666 59.133 165.666 53.933 166.6Z" fill=""/>
<path d="M575.8 167C573.666 167.666 570.066 170.066 567.8 172.2L563.666 176.2L542.6 176.6C522.2 177 521.266 177.133 518.866 180.2C516.466 183.133 516.333 186.2 516.333 242.467V301.667H535V195H548.733C561.933 195 562.733 195.133 565.8 198.466C572.866 206.066 583.933 207.933 592.066 203C596.6 200.2 601.533 191.4 601.666 185.933C601.8 173.8 587.533 163.4 575.8 167Z" fill=""/>
<path d="M10.4663 230.2C0.866338 235.933 -2.067 246.467 2.99967 256.333C6.06634 262.333 13.6663 267 20.4663 267C25.933 267 33.3997 263.4 35.933 259.533C37.7997 256.6 38.8663 256.333 48.4663 256.333H58.9997V301.667H77.6663V273C77.6663 246.733 77.3997 244.067 75.133 241.8C73.133 239.8 69.6663 239.133 55.133 238.333C39.933 237.533 37.3997 237 36.1997 234.867C34.333 231.4 25.3997 227 20.0663 227C17.6663 227 13.2663 228.466 10.4663 230.2Z" fill=""/>
<path d="M610.733 229.8C607.933 231.133 605.133 233.533 604.466 234.867C603.266 237 600.733 237.533 585.533 238.333C571 239.133 567.533 239.8 565.533 241.8C563.266 244.067 563 246.733 563 273V301.667H581.666V256.333H592.2C601.8 256.333 602.866 256.6 604.733 259.533C607.266 263.4 614.733 267 620.2 267C630.466 267 640.333 257.133 640.333 246.867C640.333 237.133 629.933 226.866 620.2 227C617.666 227.133 613.4 228.333 610.733 229.8Z" fill=""/>
<path d="M0.86634 322.2C0.46634 323.267 0.333007 332.067 0.599673 341.933C0.999673 358.2 1.26634 360.067 4.19967 364.2C8.19967 369.8 16.4663 373.533 24.8663 373.667C48.8663 373.8 72.8663 389.533 84.333 412.733C97.3997 439.133 93.533 468.733 74.333 490.867C70.8663 494.867 67.533 499.667 66.8663 501.4C65.133 506.067 65.3997 514.733 67.533 518.733C70.4663 524.2 119.133 572.067 123.4 573.667C128.066 575.267 135.133 575.4 139.266 573.8C141 573.133 145.8 569.8 149.8 566.333C172.733 546.467 202.866 543 229.933 557.267C251.666 568.6 266.866 592.867 267 615.8C267.133 624.2 270.866 632.467 276.466 636.467L281 639.667H359.666L364.2 636.467C369.933 632.333 373.533 624.2 373.666 615.667C373.8 580.2 407.533 548.2 444.733 548.333C460.6 548.333 477.933 555.133 490.866 566.333C494.866 569.8 499.666 573.133 501.4 573.8C505.533 575.4 512.6 575.267 517.266 573.667C522.2 571.8 570.733 523.533 573.133 518.067C575.266 513.133 575.533 505.933 573.8 501.4C573.133 499.667 569.8 494.867 566.333 490.867C558.866 482.333 551.533 467.8 549.666 457.8C541.8 415.933 574.866 373.8 615.8 373.667C624.2 373.533 632.466 369.8 636.466 364.2C639.533 359.933 639.666 358.6 639.666 340.333V321H477L476.2 331.667C473.266 370.733 456.066 406.6 427.533 433.667C365 493 266.6 490.333 207 427.533C181 400.2 166.2 365.267 163.933 326.333L163.666 321L82.5997 320.6C13.2663 320.333 1.53301 320.6 0.86634 322.2Z" fill=""/>
<path d="M208.733 322.467C207.533 325.667 209.4 339.933 212.333 350.867C222.6 387.8 252.6 417.667 290.6 428.6C305.666 433 335 433 350.066 428.6C372.333 422.2 393.266 408.467 407.133 391.4C421.666 373.133 431.133 349.533 431.533 330.333L431.666 321L320.6 320.6C220.733 320.333 209.533 320.467 208.733 322.467Z" fill=""/>
</svg>
