<svg width="683" height="683" viewBox="0 0 683 683" fill="none" xmlns="http://www.w3.org/2000/svg">
<path d="M278.133 3.07272C274.133 5.33938 271.6 8.40605 267.467 16.0061C255.333 38.6727 232.533 53.3394 209.2 53.3394C201.333 53.3394 193.867 57.7394 190.667 64.1394C187.867 69.4727 187.867 70.8061 188.4 141.073C188.933 221.206 189.067 223.606 198.667 252.139C209.333 284.539 224.4 308.539 249.2 333.473C272.933 357.206 298.4 373.339 328.133 383.339C340.533 387.606 342.667 387.473 356.933 382.539C386.133 372.139 409.867 356.939 433.467 333.473C463.867 302.939 482.133 269.339 490.933 227.073C493.733 213.339 493.867 209.073 494.4 141.073C494.8 70.8061 494.8 69.4727 492 64.1394C488.8 57.7394 481.333 53.3394 473.467 53.3394C450.133 53.3394 427.333 38.6727 415.2 16.0061C406.133 -0.793951 410.133 0.00604915 341.333 0.00604915C283.733 0.00604915 283.333 0.00604916 278.133 3.07272ZM407.733 138.673C416.4 144.006 420 156.406 415.467 165.073C412.533 170.539 334.533 247.739 330.267 249.339C325.333 251.073 317.867 251.073 314.267 249.206C310.133 247.073 269.467 206.673 267.2 202.406C266.133 200.406 265.333 196.406 265.333 193.339C265.333 180.273 276 171.606 289.067 174.006C292.933 174.673 296.933 177.873 308 188.806L322.133 202.673L352.667 171.873C369.6 154.939 385.467 140.006 388 138.673C394.133 135.339 402.267 135.339 407.733 138.673Z" fill=""/>
<path d="M123.2 324.673C96.5333 330.406 73.2 353.073 66 380.006C63.4667 389.473 63.4667 409.206 66 418.673C73.7333 447.873 99.0667 470.539 129.067 474.939C167.2 480.539 204 456.139 214 418.673C216.533 409.206 216.533 389.473 214 380.006C210.4 366.406 204.267 356.006 193.467 345.339C174.133 326.273 149.333 318.939 123.2 324.673Z" fill=""/>
<path d="M525.867 324.673C499.2 330.406 475.867 353.073 468.667 380.006C466.133 389.473 466.133 409.206 468.667 418.673C476.4 447.873 501.733 470.539 531.733 474.939C569.867 480.539 606.667 456.139 616.667 418.673C617.733 414.673 618.667 405.873 618.667 399.339C618.667 377.073 611.867 360.939 596.133 345.339C576.8 326.273 552 318.939 525.867 324.673Z" fill=""/>
<path d="M325.733 418.006C304.533 423.739 287.467 439.873 281.2 460.139C277.867 470.939 277.867 487.739 281.2 498.539C290.133 527.473 319.867 546.139 350 541.739C368 539.206 385.067 528.273 394.667 513.339C407.2 493.739 407.2 464.939 394.667 445.339C380.133 422.673 351.067 411.206 325.733 418.006Z" fill=""/>
<path d="M48.9333 490.006C24.6667 510.006 5.86667 544.406 1.46667 576.406C0.666667 582.139 0 604.806 0 626.806C0 664.273 0.133333 667.073 2.66667 672.006C4.4 675.473 7.2 678.273 10.6667 680.006C15.7333 682.539 18.2667 682.673 102 682.673H188V654.273C188 621.873 189.867 605.873 196 588.006C204.267 563.073 215.733 545.206 236.4 525.073L250.933 510.673L246.667 505.339C242.267 499.873 227.467 485.873 224 484.006C222.4 483.206 219.2 485.073 212.267 490.539C192.133 506.539 165.6 516.006 140.267 516.006C115.2 516.006 86.6667 506.139 68 490.939C64.6667 488.139 61.0667 485.206 59.8667 484.406C58.1333 482.939 56.4 483.873 48.9333 490.006Z" fill=""/>
<path d="M456.533 485.606C450.8 489.873 440.267 500.006 435.733 505.606L431.733 510.673L446.4 524.939C466.933 545.339 478.4 563.073 486.667 588.006C492.8 605.873 494.667 621.873 494.667 654.273V682.673H580.667C664.4 682.673 666.933 682.539 672 680.006C675.467 678.273 678.267 675.473 680.133 671.873C682.8 666.539 682.8 664.939 682.267 620.806C681.733 570.939 681.2 567.606 673.067 545.739C666.533 528.406 656.133 512.406 641.867 498.006C635.2 491.206 628.667 485.073 627.2 484.273C624.933 483.073 623.067 484.006 614.933 490.539C594.8 506.539 568.267 516.006 542.933 516.006C517.867 516.006 489.333 506.139 470.667 490.939C459.733 482.006 460.8 482.406 456.533 485.606Z" fill=""/>
<path d="M260 557.339C247.2 570.539 238.267 586.006 232.533 604.939C229.067 616.006 228.933 618.673 228.267 649.606L227.733 682.673H454.933L454.4 649.739C453.733 618.673 453.6 616.006 450.133 604.939C444.533 586.139 436 571.473 422.933 557.473L416.133 550.273L408 557.739C398 566.673 383.067 574.806 368.533 578.939C354.8 582.806 329.333 583.206 316 579.606C302 575.739 284.267 566.406 275.067 558.006L266.667 550.406L260 557.339Z" fill=""/>
</svg>
