<svg width="640" height="640" viewBox="0 0 640 640" fill="none" xmlns="http://www.w3.org/2000/svg">
<path d="M219.771 34.9333C219.371 68.8 219.237 70.1333 216.304 74.9333C214.571 77.6 210.971 81.2 208.304 82.9333C203.504 85.8667 202.171 86 168.437 86.4L133.371 86.8V272H137.104C145.104 272.133 160.037 276.267 170.571 281.467C195.637 293.733 212.437 319.467 214.304 348C215.771 371.067 207.637 392.267 191.371 408.8C180.971 419.333 171.771 425.067 158.037 429.6L148.704 432.667L156.304 433.6C181.504 436.8 211.104 449.867 230.037 466L237.104 472H379.104L370.437 463.067C354.304 446.133 342.704 425.2 336.437 401.6C333.504 390.533 332.971 385.733 332.971 369.333C332.971 348 334.571 338.533 341.371 320C355.504 280.933 390.571 248.533 431.104 236.8C453.104 230.4 482.171 229.6 500.304 234.8C502.704 235.467 505.104 236 505.637 236C506.304 236 506.704 184.933 506.704 122.533V9.06667L497.637 0H220.171L219.771 34.9333ZM454.704 36C460.971 39.2 466.037 44.6667 469.237 52C476.171 67.2 468.437 86.1333 452.704 92.8C446.171 95.6 433.771 95.6 428.571 92.9333L424.704 90.9333L405.771 108.267C388.037 124.4 386.971 125.733 388.037 128.8C390.571 135.2 389.637 145.733 385.904 153.067C376.037 172.933 348.704 175.867 334.037 158.533L330.704 154.533L313.904 158.267L296.971 162L295.504 168.133C293.237 176.667 287.637 183.333 279.237 187.467C272.704 190.667 270.837 190.933 262.037 190.267L252.171 189.6L241.104 202.4C234.971 209.467 229.371 216.267 228.437 217.333C227.237 219.067 227.237 220.533 228.704 224.667C237.237 248.667 216.971 272.267 192.571 266.8C182.837 264.533 173.104 255.867 169.904 246.4C164.704 230.533 172.571 213.467 188.037 206.933C191.371 205.6 195.637 205.2 202.837 205.733L213.104 206.4L219.504 198.8C223.104 194.667 228.837 188 232.437 183.733L238.837 176.267L236.704 172C234.037 166.8 233.904 154 236.437 147.867C241.504 135.6 251.904 128.8 265.371 128.8C275.504 128.8 282.704 131.867 289.104 139.2L293.237 143.867L309.504 140.267L325.904 136.533L328.171 130.267C331.371 121.6 333.904 118 340.171 113.467C348.971 106.933 362.704 105.6 371.504 110.4C373.904 111.733 376.171 110 393.104 94.5333C410.704 78.2667 411.904 77.0667 410.704 73.8667C409.904 72 409.371 67.3333 409.371 63.6C409.504 40.6667 434.304 25.4667 454.704 36Z" fill=""/>
<path d="M436.038 52.1333C427.904 55.4667 425.371 66 431.371 72.5333C434.438 75.7333 437.104 76.6667 443.371 76.1333C447.504 75.7333 453.371 68.5333 453.371 64C453.371 59.2 447.504 52.4 442.704 51.4667C440.837 51.0667 437.904 51.3333 436.038 52.1333Z" fill=""/>
<path d="M355.237 126.267C350.304 127.2 346.037 132.933 346.037 138.667C346.037 147.6 353.904 153.333 362.171 150.667C367.771 148.8 370.704 144.8 370.704 138.933C370.704 132.8 368.571 129.467 363.371 127.2C360.837 126.133 358.571 125.467 358.437 125.467C358.171 125.6 356.704 126 355.237 126.267Z" fill=""/>
<path d="M257.504 150.133C254.037 153.067 253.371 154.533 253.371 159.467C253.371 167.2 258.037 172 265.237 172C271.504 172 275.504 169.2 277.371 163.467C279.104 158 277.637 153.467 272.571 149.467C267.771 145.733 262.437 145.867 257.504 150.133Z" fill=""/>
<path d="M190.571 227.867C184.304 234.133 186.437 244.533 194.571 248C202.704 251.333 212.037 245.333 212.037 236.8C212.037 225.2 198.837 219.733 190.571 227.867Z" fill=""/>
<path d="M171.637 38.4C156.437 53.6 144.037 66.5334 144.037 67.0667C144.037 67.6 156.037 68 170.571 68C192.971 68 197.504 67.7334 199.237 65.8667C201.104 64.1334 201.371 59.6 201.371 37.2C201.371 22.6667 200.971 10.6667 200.304 10.6667C199.771 10.6667 186.837 23.0667 171.637 38.4Z" fill=""/>
<path d="M455.371 250.667C425.504 254.667 396.704 270.4 378.037 292.933C368.837 304 358.304 325.067 354.571 339.333C346.971 369.6 351.637 402 367.637 429.2C374.037 440 391.504 458.533 401.771 465.6C412.037 472.533 428.971 480.4 440.037 483.333C453.371 486.8 478.571 487.467 491.904 484.8C573.771 468.133 613.771 376.267 569.771 305.467C550.971 275.2 520.704 256 483.371 250.667C472.837 249.2 466.837 249.2 455.371 250.667ZM538.837 321.467C542.437 323.333 544.304 328.533 542.837 332.4C542.171 334.133 519.371 353.6 492.037 375.867C445.371 413.733 442.037 416.133 437.637 415.733C432.971 415.333 432.171 414.4 414.437 388.133C395.237 359.733 393.504 355.6 398.304 350.4C401.104 347.333 408.304 347.2 410.971 350.267C412.171 351.6 419.237 361.6 426.704 372.667C434.171 383.6 440.837 392.533 441.504 392.267C442.304 392.133 461.904 376.4 485.104 357.6C508.304 338.667 528.571 322.4 530.037 321.6C533.371 319.733 535.504 319.6 538.837 321.467Z" fill=""/>
<path d="M118.571 293.067C94.5708 299.333 76.8375 319.2 72.9708 344.133C68.1708 375.333 89.9041 406.667 121.104 413.2C153.904 420.133 185.371 400.267 194.037 367.333C203.771 329.6 173.371 290.8 134.037 290.8C130.437 290.8 123.371 291.867 118.571 293.067Z" fill=""/>
<path d="M116.037 451.467C104.571 453.6 92.7041 456.8 84.0375 460.4C40.5708 478.133 10.1708 516 2.03746 562.533C-2.09587 585.733 -0.229203 595.333 10.3041 606.667C45.6375 644.8 178.571 651.867 241.771 619.067C252.571 613.333 264.037 601.6 266.437 593.733C268.571 586.533 268.437 576.133 266.037 562.133C256.837 509.467 218.571 468.133 166.171 454.533C155.637 451.733 124.837 449.867 116.037 451.467Z" fill=""/>
<path d="M539.371 486.133C532.838 490.133 526.571 493.733 525.504 494.4C523.904 495.333 524.571 497.067 528.571 504C533.504 512.4 533.504 512.667 531.504 516.933C530.304 519.467 529.371 522.8 529.371 524.533C529.371 526.267 538.171 542.8 548.838 561.467C559.504 580.133 573.371 604.267 579.638 615.067C596.038 643.6 599.104 644.8 621.638 631.6C637.504 622.267 639.371 620.133 639.237 612.133C639.237 606.667 636.171 600.933 608.704 553.467C576.704 498.4 574.971 496 566.037 496C562.571 496 561.504 495.067 558.037 488.533C555.904 484.533 553.504 480.667 552.704 480C551.904 479.467 546.171 482.133 539.371 486.133Z" fill=""/>
</svg>
