<svg width="69" height="69" viewBox="0 0 69 69" fill="none" xmlns="http://www.w3.org/2000/svg">
<path d="M66.4728 26.0275L44.666 4.20469C41.9671 1.51205 38.3113 0 34.5 0C30.6887 0 27.0329 1.51205 24.334 4.20469L2.52716 26.0275C1.72338 26.8266 1.08612 27.7774 0.652321 28.8248C0.218521 29.8722 -0.0031924 30.9953 3.47285e-05 32.129V60.3698C3.47285e-05 62.6587 0.908737 64.8538 2.52624 66.4723C4.14374 68.0908 6.33754 69 8.62503 69H60.375C62.6625 69 64.8563 68.0908 66.4738 66.4723C68.0913 64.8538 69 62.6587 69 60.3698V32.129C69.0032 30.9953 68.7815 29.8722 68.3477 28.8248C67.9139 27.7774 67.2766 26.8266 66.4728 26.0275ZM43.125 63.2466H25.875V51.9295C25.875 49.6407 26.7837 47.4455 28.4012 45.8271C30.0187 44.2086 32.2125 43.2994 34.5 43.2994C36.7875 43.2994 38.9813 44.2086 40.5988 45.8271C42.2163 47.4455 43.125 49.6407 43.125 51.9295V63.2466ZM63.25 60.3698C63.25 61.1328 62.9471 61.8645 62.4079 62.404C61.8687 62.9435 61.1375 63.2466 60.375 63.2466H48.875V51.9295C48.875 48.1148 47.3605 44.4562 44.6646 41.7588C41.9688 39.0613 38.3125 37.5459 34.5 37.5459C30.6875 37.5459 27.0312 39.0613 24.3354 41.7588C21.6395 44.4562 20.125 48.1148 20.125 51.9295V63.2466H8.62503C7.86253 63.2466 7.13126 62.9435 6.5921 62.404C6.05293 61.8645 5.75003 61.1328 5.75003 60.3698V32.129C5.75269 31.3666 6.05532 30.636 6.5924 30.0952L28.3993 8.28101C30.0199 6.66696 32.2134 5.76084 34.5 5.76084C36.7866 5.76084 38.9801 6.66696 40.6007 8.28101L62.4076 30.1038C62.9426 30.6425 63.245 31.3696 63.25 32.129V60.3698Z" fill=""/>
</svg>
