<svg width="683" height="480" viewBox="0 0 683 480" fill="none" xmlns="http://www.w3.org/2000/svg">
<path d="M43.6 1.86667C35.7333 4.8 30.6667 9.46667 26.6667 18C24.1333 23.2 24 28.1333 24 172.8C24 322 24 322.267 26.8 325.867L29.4667 329.333H198.133C363.333 329.333 366.667 329.333 369.2 326.8C370.667 325.333 372.267 322.133 372.667 319.733C373.067 317.333 373.333 249.6 373.067 169.333C372.667 32.1333 372.533 23.0667 370.267 18C366.933 10.6667 363.067 6.8 355.333 3.2L348.667 0L198.667 0.133333C75.6 0.133333 47.7333 0.4 43.6 1.86667Z" fill=""/>
<path d="M414 62C407.6 64.2667 403.2 68.9333 401.467 75.7333C400.533 78.9333 400 127.467 400 219.6V358.667H250.133L254.8 363.6C265.2 374.8 272.4 387.733 275.333 400.667L276.933 407.333L356.267 407.733L435.733 408L437.333 401.067C442.4 378.933 459.867 357.333 481.2 346.667C494.8 339.867 520.267 337.6 535.333 342C563.867 350.267 583.733 370.267 592 399.333L594.267 407.333H677.6L680.133 404.133C682.4 401.467 682.667 398.8 682.667 383.067C682.667 365.867 682.533 365.067 679.333 362C676.4 358.933 675.2 358.667 662.667 358.667H649.333V290.133C649.333 213.6 648.8 207.6 640.933 192.133C634.8 180.133 577.733 95.8667 569.333 86.4C560.667 76.5333 548.667 68.8 535.333 64.4L524.667 60.8L472 60.4C428.267 60 418.4 60.2667 414 62ZM532.933 115.067C534.533 116 546.933 132.533 560.533 151.867C586.667 188.933 588.133 191.867 582.667 197.333C580.133 199.867 578.267 200 515.333 200C452.4 200 450.533 199.867 448 197.333C445.467 194.8 445.333 192.933 445.333 156.8V118.8L448.8 116.133C452.267 113.467 453.867 113.333 491.2 113.333C519.067 113.467 530.8 113.867 532.933 115.067Z" fill=""/>
<path d="M3.33333 362C0.133333 365.067 0 365.867 0 383.067C0 398.8 0.266667 401.467 2.53333 404.133L5.06667 407.333L118.4 408.133L120 401.067C122.8 389.6 130 375.867 138 366.933L145.6 358.667H6.53333L3.33333 362Z" fill=""/>
<path d="M185.467 360.133C175.333 362.133 163.467 368.533 155.6 376.533C131.6 400.4 131.467 438.133 155.067 461.6C184.533 491.067 233.867 482.933 251.6 445.867C258.8 430.8 259.867 416.267 255.067 400.933C246 371.867 215.733 354.133 185.467 360.133ZM210 391.867C220.4 396.533 228 408.267 228 419.333C228 430.4 220.4 442.133 210 446.8C197.467 452.533 181.067 447.867 172.933 436.267C168.933 430.533 168.667 429.2 168.667 419.333C168.667 409.733 169.067 408.133 172.667 402.667C180.667 390.933 197.333 386.133 210 391.867Z" fill=""/>
<path d="M502.8 360C480.933 364.667 462.267 382.533 456.667 404C447.733 438.533 470.533 473.333 505.867 478.8C545.333 484.933 580 450.533 574.533 410.667C571.467 388.8 554.133 368.267 533.6 361.867C525.467 359.333 510.267 358.4 502.8 360ZM527.467 391.867C538.667 396.933 546.667 411.2 544.8 422.8C541.333 444.267 520.4 455.333 501.2 445.6C485.333 437.6 480 417.467 490 402.4C493.333 397.467 501.067 391.6 506.133 390.267C512 388.8 522.267 389.467 527.467 391.867Z" fill=""/>
</svg>
