<svg width="4714" height="701" viewBox="0 0 4714 701" fill="none" xmlns="http://www.w3.org/2000/svg">
<path d="M2250.92 0.857874C2167.32 7.79121 2115.98 25.3912 2087.45 56.7245C2062.52 84.0579 2050.12 113.391 2042.12 163.391C2039.32 181.125 2038.12 233.391 2040.12 253.391C2044.92 302.191 2056.92 327.391 2080.92 338.058C2104.25 348.591 2163.58 362.325 2259.58 379.391C2380.38 400.858 2422.78 411.658 2435.32 424.191C2448.65 437.525 2454.65 465.658 2453.18 508.058C2450.65 584.458 2427.58 620.858 2375.58 630.725C2303.98 644.458 2159.05 639.391 2068.65 619.925C2050.52 616.058 2051.58 616.058 2048.25 619.391C2039.58 628.058 2051.98 663.791 2067.58 675.658C2090.25 692.858 2149.32 700.725 2255.85 700.725C2375.05 700.858 2432.52 689.791 2467.05 660.325C2503.05 629.525 2519.72 586.058 2524.52 510.325C2528.12 450.591 2519.58 405.525 2499.18 377.525C2492.78 368.725 2485.18 364.325 2466.25 358.191C2431.05 346.725 2393.72 338.725 2306.92 323.925C2184.92 303.258 2140.38 292.458 2126.12 280.191C2111.05 267.391 2104.38 235.125 2107.18 189.658C2109.58 148.991 2119.98 120.458 2139.98 99.1245C2148.65 89.9245 2151.85 87.6579 2163.45 82.0579C2186.65 70.7245 2221.05 63.6579 2266.92 60.7245C2319.58 57.5245 2368.78 59.6579 2465.18 69.6579C2499.85 73.1245 2500.25 73.1245 2503.05 70.5912C2505.58 68.3245 2505.85 66.9912 2505.32 59.2579C2504.25 44.9912 2492.92 24.9912 2481.45 17.5245C2471.18 10.7245 2448.52 5.52454 2414.25 1.92454C2395.98 0.0578741 2269.85 -0.742126 2250.92 0.857874Z" fill="#F35D03"/>
<path d="M808.583 6.85809C692.716 11.3914 694.583 11.2581 688.583 18.0581C685.916 20.9914 685.916 22.8581 685.916 349.258V677.391L688.716 682.058C690.183 684.591 694.049 688.191 697.249 689.925C702.716 692.991 705.249 693.391 729.916 694.458C766.849 696.058 1075.12 694.725 1094.58 692.858C1114.32 690.991 1123.12 686.991 1133.92 674.991C1147.92 659.525 1156.05 637.658 1150.05 631.658C1147.52 629.125 1136.85 629.125 1091.92 631.391C1044.58 633.791 851.249 635.925 809.249 634.458C763.783 632.991 762.049 632.591 756.849 622.191L753.916 616.058V504.725C753.916 403.525 754.183 392.991 756.183 388.458C760.449 378.991 749.383 379.525 920.049 378.991C1044.05 378.591 1075.12 378.191 1079.92 376.725C1091.52 373.258 1110.05 350.458 1112.58 336.458C1113.12 333.658 1112.85 329.525 1111.92 326.858C1108.85 317.391 1122.85 318.058 934.583 318.058C800.183 318.058 763.916 317.658 761.249 316.325C753.649 312.458 753.916 316.325 753.916 196.725C753.916 86.8581 753.916 86.7248 756.849 80.4581C760.849 71.7914 764.049 70.0581 780.183 68.3248C800.849 66.1914 1028.45 66.3248 1087.92 68.5914C1123.52 69.9248 1136.05 70.0581 1138.18 68.9914C1139.78 68.0581 1141.78 65.2581 1142.58 62.5914C1146.32 51.5248 1138.32 34.8581 1122.05 19.6581C1112.45 10.7248 1112.58 10.8581 1085.25 8.45809C1070.72 7.25809 833.916 5.92476 808.583 6.85809Z" fill="#F35D03"/>
<path d="M3095.58 7.52453C2989.32 12.0579 2986.38 12.3245 2980.52 15.2579C2976.25 17.3912 2974.65 19.1245 2973.58 22.9912C2972.52 26.5912 2972.25 122.325 2972.52 352.725L2972.92 677.391L2975.98 682.325C2981.32 690.991 2986.52 692.458 3018.25 694.191C3058.78 696.458 3263.58 696.591 3292.92 694.325C3339.18 690.858 3364.12 686.725 3384.38 679.391C3419.85 666.591 3449.72 635.125 3465.45 594.058C3484.25 545.125 3484.92 464.991 3467.05 418.591C3459.72 399.658 3439.18 365.658 3426.78 351.925C3408.65 331.925 3408.38 324.591 3425.18 298.325C3437.98 278.325 3449.45 246.991 3454.52 218.725C3457.85 199.525 3457.85 142.725 3454.52 124.725C3442.12 58.0579 3410.12 25.7912 3345.58 14.8579C3325.72 11.5245 3300.52 8.99119 3272.92 7.39119C3243.58 5.79119 3134.65 5.92453 3095.58 7.52453ZM3266.25 66.0579C3320.92 69.5245 3342.38 75.9245 3360.38 93.9245C3378.92 112.591 3386.92 139.791 3386.92 183.925C3386.92 227.658 3380.38 253.258 3362.52 279.125C3352.38 293.791 3341.05 303.791 3331.32 306.458C3316.52 310.591 3285.72 311.525 3168.25 311.125C3061.05 310.725 3053.98 310.591 3049.85 308.325C3040.52 303.258 3040.92 307.925 3040.92 191.391C3040.92 76.5912 3040.65 80.1912 3048.92 72.8579C3054.12 68.3245 3058.38 67.3912 3082.78 66.0579C3109.45 64.5912 3242.78 64.5912 3266.25 66.0579ZM3288.38 368.725C3351.58 371.125 3364.38 376.325 3384.92 407.925C3401.18 432.725 3407.85 455.925 3409.18 490.725C3411.05 546.058 3394.92 593.391 3366.78 614.591C3347.05 629.525 3325.85 634.591 3268.92 638.191C3239.72 639.925 3088.65 638.991 3068.65 636.991C3048.12 634.858 3042.38 629.391 3040.92 610.991C3040.38 604.991 3040.25 551.791 3040.52 492.725C3041.05 375.925 3040.92 377.925 3048.52 372.325C3050.38 370.858 3055.45 369.258 3059.85 368.725C3071.18 367.258 3251.45 367.258 3288.38 368.725Z" fill="#F35D03"/>
<path d="M4370.25 6.85809C4254.38 11.3914 4256.25 11.2581 4250.25 18.0581C4247.58 20.9914 4247.58 22.8581 4247.58 349.258V677.391L4250.38 682.058C4251.85 684.591 4255.72 688.191 4258.92 689.925C4264.38 692.991 4266.92 693.391 4291.58 694.458C4328.52 696.058 4636.78 694.725 4656.25 692.858C4675.98 690.991 4684.78 686.991 4695.58 674.991C4709.58 659.525 4717.72 637.658 4711.72 631.658C4709.18 629.125 4698.52 629.125 4653.58 631.391C4606.25 633.791 4412.92 635.925 4370.92 634.458C4325.45 632.991 4323.72 632.591 4318.52 622.191L4315.58 616.058V504.725C4315.58 403.525 4315.85 392.991 4317.85 388.458C4322.12 378.991 4311.05 379.525 4481.72 378.991C4605.72 378.591 4636.78 378.191 4641.58 376.725C4653.18 373.258 4671.72 350.458 4674.25 336.458C4674.78 333.658 4674.52 329.525 4673.58 326.858C4670.52 317.391 4684.52 318.058 4496.25 318.058C4361.85 318.058 4325.58 317.658 4322.92 316.325C4315.32 312.458 4315.58 316.325 4315.58 196.725C4315.58 86.8581 4315.58 86.7248 4318.52 80.4581C4322.52 71.7914 4325.72 70.0581 4341.85 68.3248C4362.52 66.1914 4590.12 66.3248 4649.58 68.5914C4685.18 69.9248 4697.72 70.0581 4699.85 68.9914C4701.45 68.0581 4703.45 65.2581 4704.25 62.5914C4707.98 51.5248 4699.98 34.8581 4683.72 19.6581C4674.12 10.7248 4674.25 10.8581 4646.92 8.45809C4632.38 7.25809 4395.58 5.92476 4370.25 6.85809Z" fill="#F35D03"/>
<path d="M2703.05 10.4579C2700.52 11.3912 2697.18 13.7912 2695.72 15.7912L2692.92 19.5246V354.058C2692.92 673.791 2693.05 688.725 2695.32 690.991C2697.45 693.125 2700.52 693.391 2722.65 693.391C2745.32 693.391 2747.98 693.125 2752.25 690.725C2755.85 688.591 2757.32 686.591 2758.52 682.058C2760.65 673.925 2760.92 23.9246 2758.78 16.3246C2757.85 12.8579 2756.38 10.8579 2754.12 10.0579C2749.18 8.19124 2708.52 8.59124 2703.05 10.4579Z" fill="#F35D03"/>
<path d="M3659.32 10.1911C3656.92 10.8578 3654.38 12.5911 3653.58 14.0578C3652.65 15.7911 3652.38 122.458 3652.52 347.258L3652.92 677.924L3655.58 681.658C3657.18 683.658 3661.58 686.991 3665.58 688.991L3672.92 692.724L3734.25 694.191C3771.98 695.124 3839.58 695.391 3909.58 694.991C4046.65 694.058 4079.72 692.458 4092.92 685.791C4106.92 678.591 4125.58 651.791 4125.58 638.858C4125.58 628.458 4122.92 627.525 4098.25 628.858C4017.72 633.391 3973.58 634.458 3864.25 634.591C3801.58 634.725 3746.78 634.191 3742.65 633.658C3738.52 632.991 3733.05 631.258 3730.65 629.525C3721.58 623.525 3722.38 649.391 3721.58 320.724C3720.92 23.2578 3720.92 22.7245 3718.12 18.0578C3713.72 10.4578 3710.25 9.52447 3685.58 9.12447C3673.45 8.99113 3661.58 9.39114 3659.32 10.1911Z" fill="#F35D03"/>
<path d="M31.9164 10.0579C27.9164 10.5913 22.5831 11.9246 20.1831 13.2579C11.1164 17.9246 1.51643 35.6579 0.316428 49.9246C-0.350239 58.1913 -0.216908 58.9913 3.24976 62.0579L6.84976 65.3913L227.25 66.7246L234.85 69.7913C243.65 73.3913 246.983 76.9913 250.316 86.5913C252.45 92.9913 252.583 112.191 253.25 390.991C253.916 674.458 254.05 688.725 256.316 690.991C258.45 693.125 261.516 693.391 286.716 693.391H314.85L321.25 685.925V398.991C321.25 222.725 321.783 107.791 322.583 100.858C324.316 85.3913 327.25 77.3913 332.316 73.5246C341.516 66.7246 338.983 66.8579 449.25 66.0579C541.516 65.3913 553.116 65.1246 557.516 63.1246C566.45 59.1246 575.783 41.1246 577.916 24.1913C578.85 17.2579 578.716 16.5913 574.85 12.7246L570.85 8.72461L304.983 8.85794C158.85 8.99128 35.9164 9.52461 31.9164 10.0579Z" fill="#145364"/>
<path d="M1345.63 2.9043L1341.53 6.18018L1341.04 346.383C1340.88 578.645 1341.2 688.715 1342.35 692.974C1344.65 701.164 1346.12 701.491 1375.46 700.672C1402.5 700.017 1406.6 698.543 1409.39 688.388C1410.54 684.293 1411.19 635.318 1411.19 545.394C1411.19 467.592 1411.85 404.53 1412.83 399.125C1415.13 384.22 1417.26 381.271 1427.58 377.668C1435.61 374.883 1443.15 374.556 1498.06 373.901C1569.53 372.918 1606.57 374.883 1623.29 379.961C1632.79 382.909 1636.07 385.039 1642.96 392.246C1647.55 396.996 1654.92 406.987 1659.35 414.522C1663.77 421.893 1693.77 482.497 1726.06 548.998C1762.77 624.999 1787.19 673.319 1791.29 678.724C1795.23 683.801 1801.29 689.207 1806.37 691.827C1815.88 697.069 1834.73 700.836 1851.77 701C1867.51 701 1873.41 698.052 1873.41 690.026C1873.41 686.914 1832.6 602.887 1740.97 417.962C1715.73 367.185 1711.63 351.461 1718.52 330.823C1724.25 313.46 1739.17 284.796 1810.31 153.924C1862.92 56.9567 1882.1 20.2666 1882.75 15.0251C1884.56 1.75772 1876.85 -1.35441 1848.66 1.43011C1826.04 3.72325 1814.08 9.45607 1803.75 22.5597C1799.82 27.4736 1784.08 55.6464 1768.67 84.9658C1753.43 114.285 1725.89 167.027 1707.54 202.243C1689.18 237.295 1670.82 270.873 1666.89 276.77C1652.63 297.736 1640.33 306.908 1620.83 311.331C1614.93 312.641 1585.26 313.46 1529.53 313.952C1425.94 314.934 1418.9 313.952 1414.31 300.193C1412.67 295.443 1412.01 259.408 1411.36 153.924C1410.37 20.1028 1410.21 13.7148 1407.26 9.2923C1402.18 1.92151 1398.73 0.938751 1373.49 0.283569C1351.53 -0.371612 1349.4 -0.0440192 1345.63 2.9043Z" fill="#145364"/>
</svg>
