<svg width="641" height="640" viewBox="0 0 641 640" fill="none" xmlns="http://www.w3.org/2000/svg">
<path d="M591.934 2.20063C571.934 9.40063 562.201 29.8006 569.134 50.2006L571.401 56.6006L495.667 132.334H435.801L454.201 151.001H502.334L583.934 69.4006L590.201 71.534C613.401 79.4006 637.534 64.6006 639.934 41.0006C642.601 15.0006 616.067 -6.3327 591.934 2.20063Z" fill=""/>
<path d="M212.201 77.4006C208.467 80.734 207.801 82.334 206.334 93.2673C204.334 107.401 200.201 117.134 192.734 125.667C181.667 137.934 163.267 145.401 147.667 143.934C135.934 142.734 127.801 139.534 117.801 131.934C113.001 128.334 107.401 124.734 105.401 124.067C98.4673 121.667 93.934 124.734 71.934 146.734C51.134 167.801 51.0007 167.934 51.0007 173.934C51.0007 178.601 51.934 181.134 55.0007 185.134C68.4673 202.601 71.6673 211.001 70.734 227.667C69.534 251.001 54.334 270.467 32.4673 276.867C28.4673 278.067 22.8673 279.001 20.0673 279.001C12.734 279.001 6.20065 282.201 3.00065 287.267C0.600651 291.267 0.333984 293.934 0.333984 320.334C0.333984 346.734 0.600651 349.401 3.00065 353.401C6.20065 358.467 12.734 361.667 20.0673 361.667C22.8673 361.667 28.4673 362.601 32.4673 363.801C54.334 370.201 69.534 389.667 70.734 413.001C71.6673 429.667 68.4673 438.067 55.0007 455.534C51.934 459.534 51.0007 462.067 51.0007 466.734C51.0007 472.734 51.134 472.867 71.934 493.934C93.934 515.934 98.4673 519.001 105.401 516.601C107.401 515.934 113.001 512.334 117.801 508.734C127.801 501.134 135.934 497.934 147.667 496.734C163.267 495.267 181.667 502.734 192.734 515.001C200.201 523.534 204.334 533.267 206.334 547.401C207.801 558.334 208.467 559.934 212.201 563.267L216.334 567.001H246.467C279.534 567.001 282.467 566.467 286.334 559.001C287.401 556.867 288.334 552.867 288.334 550.067C288.601 517.801 320.601 491.401 352.601 497.401C362.467 499.267 371.401 503.534 380.067 510.867C387.401 517.134 391.934 518.467 398.067 516.467C403.934 514.467 442.467 475.934 443.667 470.601C445.134 464.734 443.401 459.267 437.801 452.601C418.201 429.267 419.534 396.734 441.001 376.467C450.467 367.534 460.067 363.134 473.401 361.801C493.534 359.801 495.001 356.867 495.001 320.334C495.001 283.801 493.534 280.867 473.401 278.867C460.067 277.534 450.467 273.134 441.001 264.201C419.534 243.934 418.201 211.401 437.801 188.067C443.401 181.401 445.134 175.934 443.667 170.067C442.467 164.734 403.934 126.201 398.067 124.201C391.934 122.201 387.401 123.534 380.067 129.801C361.801 145.134 340.601 148.067 319.667 138.467C301.667 130.334 288.467 110.067 288.334 90.6006C288.334 87.8006 287.401 83.8006 286.334 81.6673C282.467 74.2006 279.534 73.6673 246.467 73.6673H216.334L212.201 77.4006ZM272.334 202.334C316.867 211.134 353.801 247.267 365.267 293.267C368.334 305.534 368.334 334.867 365.267 347.401C350.467 407.267 294.867 446.734 234.467 440.067C181.401 434.334 138.867 394.867 129.001 342.334C126.067 326.867 126.867 302.734 131.001 288.601C144.601 240.467 185.401 205.667 234.334 200.334C245.401 199.134 260.334 199.934 272.334 202.334Z" fill=""/>
<path d="M235.267 237.801C204.867 242.334 180.334 262.734 168.601 293.401C165.401 301.401 165.134 304.067 165.134 320.334C165.134 336.334 165.534 339.267 168.601 347.267C180.467 378.601 205.667 398.867 237.534 402.867C261.934 405.934 285.801 398.201 303.934 381.267C314.734 371.134 321.267 361.134 326.201 347.001C329.801 336.867 330.201 333.934 330.201 320.334C330.201 306.734 329.801 303.801 326.201 293.667C321.267 279.534 314.734 269.534 303.934 259.401C285.801 242.467 259.667 234.201 235.267 237.801Z" fill=""/>
<path d="M595.667 284.201C584.201 287.134 573.001 296.467 569.534 306.067L567.801 311.001H513.667V329.667H567.801L569.534 334.467C570.467 337.134 573.401 341.667 576.067 344.601C593.401 363.801 624.067 359.934 636.067 337.134C639.001 331.534 639.534 328.601 639.534 320.334C639.534 312.067 639.001 309.134 636.067 303.534C632.067 295.801 626.201 290.334 618.334 286.867C611.934 284.067 601.134 282.734 595.667 284.201Z" fill=""/>
<path d="M435.801 508.334H495.667L571.267 583.934L569.001 590.734C566.201 599.267 566.734 612.201 570.334 619.534C578.067 635.667 596.467 643.534 614.334 638.467C625.134 635.267 635.267 625.134 638.467 614.334C643.534 596.467 635.667 578.067 619.534 570.334C612.201 566.734 599.267 566.201 590.734 569.001L583.934 571.267L502.334 489.667H454.201L435.801 508.334Z" fill=""/>
</svg>
