<svg width="597" height="574" viewBox="0 0 597 574" fill="none" xmlns="http://www.w3.org/2000/svg">
<path d="M271.079 1.56833C266.412 4.235 265.345 6.90167 264.812 17.435C264.012 29.9683 260.812 35.835 252.545 39.835C242.145 44.9017 234.145 42.9017 222.545 32.5017C212.012 23.035 210.679 23.435 190.145 43.5683C180.545 53.035 172.012 62.3683 171.079 64.635C168.945 69.5683 170.279 73.435 176.945 80.635C184.012 88.235 185.345 91.1683 185.345 98.635C185.212 112.768 176.012 121.302 161.079 121.302C152.545 121.302 146.012 123.702 144.545 127.302C144.145 128.502 143.745 141.168 143.745 155.302C143.745 187.168 143.479 186.768 159.612 188.102C171.745 189.168 177.479 191.835 182.012 198.502C188.545 208.235 186.812 219.168 176.945 229.302C170.945 235.435 169.212 239.035 170.145 243.302C170.412 244.902 178.945 254.502 189.212 264.768C206.012 281.435 208.012 283.168 212.412 283.168C216.279 283.168 218.279 281.968 223.479 277.035C230.679 269.968 234.812 267.968 242.812 267.968C256.012 268.102 265.079 278.635 265.079 294.102C265.079 300.368 265.745 303.035 267.879 305.835L270.545 309.302H326.279L328.945 305.835C331.079 303.035 331.745 300.368 331.745 293.702C331.745 279.435 338.812 269.835 350.412 268.368C359.479 267.168 364.412 268.902 372.545 276.235C384.545 287.302 385.479 287.035 407.879 264.502C424.679 247.568 426.412 245.302 426.412 241.168C426.412 237.302 425.079 235.035 419.879 229.435C412.145 221.168 409.479 213.435 411.745 205.435C414.812 194.102 423.879 188.102 438.145 187.968C445.212 187.968 447.079 187.435 449.745 184.635C453.079 181.435 453.079 181.302 453.079 155.035C452.945 136.368 452.545 127.968 451.345 126.502C448.812 123.168 443.745 121.035 440.279 121.835C432.545 123.835 418.145 117.702 414.012 110.635C408.412 100.902 410.279 91.1683 419.879 80.5017C425.212 74.635 426.412 72.3683 426.412 68.3683C426.412 63.835 425.079 62.1017 407.879 45.035C391.345 28.635 388.945 26.635 384.812 26.635C381.345 26.635 378.945 27.835 374.679 32.1017C368.279 38.235 359.612 42.5017 353.879 42.635C347.879 42.635 339.479 37.9683 335.745 32.5017C333.345 28.9017 332.412 25.435 332.012 18.7683C331.479 7.835 329.879 3.435 325.612 1.435C321.079 -0.565001 274.679 -0.431668 271.079 1.56833ZM309.079 92.1017C331.212 95.5683 350.545 111.435 357.745 131.968C366.145 155.835 360.279 183.568 343.345 200.502C313.612 230.235 260.012 221.968 241.745 184.902C226.412 153.435 238.012 114.368 267.212 99.1683C281.479 91.7017 293.879 89.5683 309.079 92.1017Z" fill=""/>
<path d="M34.6787 341.702C31.7454 344.768 31.7453 345.302 31.7453 396.502C31.7453 445.302 31.8787 448.235 34.1453 447.168C35.3453 446.502 68.9454 445.835 108.812 445.568L181.212 445.168L180.412 343.702L177.212 341.168C174.279 338.768 171.079 338.635 105.879 338.635H37.4787L34.6787 341.702Z" fill=""/>
<path d="M226.545 342.102C223.879 345.568 223.745 347.035 223.745 395.435V445.302H373.079V395.435C373.079 347.035 372.945 345.568 370.279 342.102L367.612 338.635H229.212L226.545 342.102Z" fill=""/>
<path d="M419.079 341.968L415.745 345.168V445.168L488.145 445.568C527.879 445.835 561.479 446.502 562.812 447.168C564.945 448.235 565.079 445.302 565.079 396.368V344.368L562.012 341.568C558.945 338.635 558.945 338.635 490.545 338.635H422.279L419.079 341.968Z" fill=""/>
<path d="M39.212 468.102C36.412 468.768 30.5453 471.168 26.1453 473.568C-7.05465 491.302 -9.05465 542.768 22.5453 563.835C37.7453 574.102 18.9453 573.435 302.412 573.035L555.079 572.635L562.812 569.568C587.212 559.568 601.479 533.168 595.612 508.102C592.012 492.502 580.145 477.835 565.479 470.902L557.745 467.302L301.079 467.035C149.345 467.035 42.2787 467.435 39.212 468.102ZM98.9453 512.102C105.879 517.568 101.345 530.635 92.412 530.635C87.3453 530.635 82.412 525.035 82.412 519.435C82.412 514.235 87.212 509.302 92.412 509.302C94.012 509.302 96.9453 510.502 98.9453 512.102ZM181.612 512.102C186.279 515.835 186.412 522.768 181.745 527.302C172.412 536.768 158.679 522.368 167.745 512.635C171.612 508.502 176.812 508.368 181.612 512.102ZM264.412 512.635C266.279 514.368 267.745 517.035 267.745 518.502C267.745 526.768 259.612 532.768 253.212 529.168C248.012 526.235 245.745 520.768 247.745 515.835C250.812 508.635 258.945 507.035 264.412 512.635ZM347.079 512.635C355.079 520.502 346.279 533.702 335.879 529.435C332.012 527.702 329.079 523.168 329.079 518.502C329.079 514.368 334.945 509.302 339.745 509.302C342.279 509.302 345.079 510.502 347.079 512.635ZM429.079 512.635C433.345 517.168 433.079 523.702 428.412 527.568C424.279 531.168 422.279 531.302 417.212 528.635C410.812 525.435 409.745 517.835 415.079 512.635C419.345 508.235 424.945 508.235 429.079 512.635ZM511.345 512.235C515.745 516.368 515.612 524.235 510.945 527.835C506.279 531.568 501.745 531.302 497.745 527.302C493.079 522.768 493.212 515.835 497.879 512.102C502.412 508.502 507.479 508.502 511.345 512.235Z" fill=""/>
</svg>
