<svg width="2486" height="2557" viewBox="0 0 2486 2557" fill="none" xmlns="http://www.w3.org/2000/svg">
<path d="M2483.84 1511.6C2495.68 1702.97 2423.67 1852.92 2267.81 1961.43C2111.95 2069.94 1963.98 2189.3 1823.9 2319.51C1683.83 2449.72 1513.17 2526.67 1311.93 2550.34C1110.69 2574.02 925.239 2529.63 755.568 2417.17C585.897 2304.71 460.617 2162.66 379.728 1991.02C298.838 1819.38 209.07 1648.72 110.424 1479.05C11.7786 1309.38 -20.7745 1123.92 12.7651 922.685C46.3046 721.448 142.978 558.682 302.784 434.388C462.59 310.094 623.383 198.625 785.162 99.9789C946.941 1.33305 1119.57 -24.3149 1303.05 23.0351C1486.53 70.3851 1657.19 129.573 1815.02 200.598C1972.86 271.623 2125.76 365.336 2273.73 481.738C2421.7 598.14 2490.75 751.041 2480.88 940.441C2471.02 1129.84 2472.01 1320.23 2483.84 1511.6Z" fill="" fill-opacity="0.12"/>
</svg>
