<svg width="630" height="683" viewBox="0 0 630 683" fill="none" xmlns="http://www.w3.org/2000/svg">
<path d="M158.479 111.067C73.0123 172.267 2.34563 222.8 1.4123 223.467C0.212297 224.134 -0.187703 230.4 0.0789641 249.867L0.478964 275.467L157.012 163.467C243.012 102 313.946 51.6003 314.612 51.6003C315.146 51.6003 384.212 100.667 468.079 160.667C551.946 220.534 622.479 271.067 624.879 272.667L629.146 275.734V250L629.012 224.267L472.346 112.267C386.079 50.6669 315.146 0.133599 314.746 0.000266049C314.212 -0.133067 243.946 49.8669 158.479 111.067Z" fill=""/>
<path d="M183.812 188.134L53.8123 281.867L53.1456 682.267H575.812L575.146 281.734L445.146 188.134C373.679 136.534 314.879 94.4003 314.479 94.4003C314.079 94.4003 255.279 136.534 183.812 188.134ZM242.479 337.734C247.279 338.8 256.212 342.134 262.479 345.2C271.812 349.6 275.946 352.667 285.279 362.267C294.612 371.6 297.946 376 302.212 385.067C308.479 398 311.812 412.534 311.812 426.8V436.8L318.879 439.334C322.612 440.8 332.879 444.8 341.546 448.134C350.346 451.467 357.812 454.267 358.479 454.267C359.012 454.267 363.279 444.134 367.946 431.6C372.612 419.2 377.146 408.934 377.812 408.934C378.612 408.934 386.346 411.734 395.146 415.067C403.946 418.4 412.479 421.734 414.079 422.4C416.879 423.467 416.746 423.867 408.346 445.734C403.546 458 399.946 468.667 400.212 469.467C400.879 470.934 431.546 483.067 432.346 482.134C432.612 481.867 436.612 471.734 441.146 459.6C445.812 447.467 449.946 437.2 450.346 436.667C451.012 435.867 488.746 449.334 489.946 450.667C490.079 450.8 486.079 461.6 481.146 474.534L472.212 498.134L486.612 503.734C494.612 506.8 501.146 509.734 501.146 510.4C501.146 512 487.679 546.8 486.612 548C486.079 548.534 450.346 535.467 407.012 518.8C363.812 502.267 321.146 486 312.212 482.667L295.812 476.534L292.879 480.4C263.546 519.2 205.946 526.4 167.012 496.267C152.346 484.934 142.212 470.4 136.212 452.267C133.146 443.067 132.612 439.467 132.612 424.934C132.612 410.267 133.146 407.067 136.346 397.6C146.746 367.334 171.012 344.934 201.012 337.6C211.146 335.2 231.946 335.2 242.479 337.734Z" fill=""/>
<path d="M205.012 381.334C191.679 386.934 183.946 394.267 178.212 407.2C173.679 416.934 173.946 433.6 178.746 443.867C196.079 481.2 246.746 481.867 264.746 445.2C267.946 438.534 268.479 436 268.479 425.6C268.479 415.467 267.946 412.4 265.012 406.134C260.079 395.6 253.012 388.4 242.746 383.334C230.746 377.334 216.212 376.667 205.012 381.334Z" fill=""/>
</svg>
