<svg width="499" height="610" viewBox="0 0 499 610" fill="none" xmlns="http://www.w3.org/2000/svg">
<path d="M34.1655 1.77169C21.6322 5.63836 8.96553 17.905 3.49886 31.3717L0.432192 38.9717L0.0321915 300.172C-0.101142 474.172 0.165525 563.905 1.09886 568.838C4.03219 584.972 14.5655 598.838 28.9655 606.038L36.4322 609.638H461.766L469.366 605.905C483.766 598.838 494.032 585.105 497.099 569.105C498.966 559.238 498.966 50.705 497.099 40.8384C494.032 24.8384 483.766 11.105 469.366 4.03836L461.766 0.305022L251.099 0.0383552C71.0989 -0.0949781 39.4989 0.0383551 34.1655 1.77169ZM253.766 78.5717C258.166 80.5717 258.432 81.105 274.032 117.505C280.966 133.638 287.499 147.905 288.566 148.972C290.166 150.572 296.432 151.105 321.899 151.638L353.366 152.305L356.566 156.038C360.032 160.038 360.699 164.838 358.299 169.105C357.632 170.572 346.299 180.172 333.366 190.438C320.432 200.838 308.966 210.172 308.166 211.372C305.232 215.105 306.166 220.305 317.099 256.705C328.566 294.705 328.966 297.505 322.832 302.305C316.432 307.238 313.366 306.038 292.166 290.038C259.366 265.105 253.099 260.972 249.099 260.972C246.299 260.972 237.632 266.705 215.766 282.972C184.299 306.438 182.032 307.505 175.366 302.305C169.232 297.505 169.632 294.705 181.099 256.705C186.966 237.105 191.766 219.372 191.766 217.105C191.766 214.972 190.699 212.038 189.499 210.572C188.166 209.105 176.566 199.505 163.632 189.238C150.699 178.972 139.766 169.505 139.232 168.305C137.632 164.038 138.432 159.772 141.632 156.038L144.832 152.305L176.299 151.638C201.766 151.105 208.032 150.572 209.632 148.972C210.699 147.905 217.232 133.772 224.166 117.638C240.566 79.3717 239.766 81.105 243.632 78.9717C247.899 76.5717 249.366 76.5717 253.766 78.5717ZM147.099 364.838C160.966 371.105 167.499 388.038 161.232 401.638C151.766 422.705 121.766 423.905 110.566 403.638C102.566 389.238 109.499 370.038 125.099 363.772C130.432 361.638 141.366 362.172 147.099 364.838ZM374.032 372.438C387.099 382.172 387.099 398.438 374.032 408.172C370.299 410.972 369.232 410.972 291.766 410.972C214.299 410.972 213.232 410.972 209.499 408.172C197.632 399.372 196.299 384.305 206.699 374.705C208.299 373.105 211.232 371.238 213.099 370.438C215.232 369.638 244.032 369.238 293.366 369.372C369.099 369.638 370.299 369.638 374.032 372.438ZM149.099 465.372C165.232 473.638 168.432 496.438 155.232 509.638C146.032 518.838 134.299 520.705 122.566 514.838C105.099 506.038 101.632 484.305 115.766 470.305C125.366 460.572 136.299 458.972 149.099 465.372ZM372.566 471.105C379.232 474.305 382.832 480.172 383.499 488.838C384.032 497.638 380.832 503.638 373.099 508.172C368.566 510.838 366.299 510.972 293.099 511.372L217.766 511.772L211.766 508.705C202.966 504.172 199.366 498.172 200.032 488.838C200.699 480.305 204.166 474.438 210.699 471.238C214.566 469.238 223.899 468.972 291.499 468.972C359.366 468.972 368.566 469.238 372.566 471.105Z" fill=""/>
</svg>
