<svg width="683" height="682" viewBox="0 0 683 682" fill="none" xmlns="http://www.w3.org/2000/svg">
<path d="M196.733 1.5498C167.667 6.48313 145.933 15.6831 122.867 33.1498C98.8667 51.1498 78.7333 79.0165 69 107.683C61.5333 129.816 61 133.816 60.4667 189.283L59.8 241.016H140.067V196.616C140.067 162.883 140.6 150.083 142.067 143.016C149.667 107.016 183.267 79.6831 220.067 79.6831C256.867 79.6831 290.467 107.016 298.067 143.016C299.533 150.083 300.067 162.883 300.067 196.616V241.016H380.333L379.667 189.283C379.133 133.95 378.6 129.95 371.133 107.683C355.933 62.4831 317.4 24.0831 272.067 8.61647C249.133 0.749798 218.333 -2.0502 196.733 1.5498Z" fill=""/>
<path d="M610.867 242.483C575.933 249.283 554.067 288.216 566.733 321.15C568.2 325.016 569.267 328.216 569 328.35C568.867 328.483 561.133 335.816 551.8 344.75L535 361.016H480.067V401.016H513.4C541.933 401.016 547.533 400.75 551.133 398.75C553.533 397.55 564.867 387.55 576.6 376.483C588.2 365.416 598.333 356.483 599.267 356.483C600.067 356.616 604.333 357.683 608.733 358.883C648.467 369.55 688.467 333.15 681.667 292.216C676.067 258.216 644.2 235.95 610.867 242.483Z" fill=""/>
<path d="M48.2 282.483C25.2667 287.016 5.8 306.75 1.4 330.216C-0.466667 339.95 -0.466667 582.083 1.4 591.816C5.93333 615.816 25.2667 635.15 49.2667 639.683C59.1333 641.55 381 641.55 390.867 639.683C414.867 635.15 434.2 615.816 438.733 591.816C440.6 582.083 440.6 339.95 438.733 330.216C434.2 306.216 414.867 286.883 390.867 282.35C381.933 280.75 56.8667 280.75 48.2 282.483ZM230.867 362.35C255.8 367.15 274.867 386.883 279 412.483C283 436.616 269.933 462.083 247.667 473.683L240.067 477.683V511.416C240.067 542.616 239.8 545.55 237.4 550.35C234.333 556.35 226.733 561.016 220.067 561.016C213.4 561.016 205.8 556.35 202.733 550.35C200.333 545.55 200.067 542.616 200.067 511.416V477.683L192.467 473.683C170.2 462.083 157.133 436.616 161.133 412.483C166.733 378.483 197.933 356.083 230.867 362.35Z" fill=""/>
<path d="M210.467 403.816C204.733 406.75 200.067 414.616 200.067 421.016C200.067 427.683 204.733 435.283 210.733 438.35C213.533 439.816 217.8 441.016 220.067 441.016C230.2 441.016 240.067 431.15 240.067 421.016C240.067 414.35 235.4 406.75 229.4 403.683C222.867 400.35 216.867 400.35 210.467 403.816Z" fill=""/>
<path d="M608.733 402.883C592.6 406.883 577.8 418.616 570.067 433.416L566.067 441.016H480.067V481.016H566.067L570.067 488.616C581.667 510.883 607.133 523.95 631.267 519.95C657.667 515.683 677.267 496.083 681.667 469.816C688.467 429.016 649 392.883 608.733 402.883Z" fill=""/>
<path d="M480.067 561.016L507 561.283L533.933 561.683L550.333 581.016C560.867 593.416 566.467 601.016 565.933 602.35C565.533 603.416 564.6 607.683 563.8 611.683C559.267 636.083 573.533 663.95 596.6 675.683C624.333 689.683 657.8 679.283 673.933 651.683C695.133 615.15 674.2 569.95 632.733 562.216C620.333 559.95 610.6 561.416 594.6 568.216C593.133 568.883 587.8 563.416 574.2 547.283C562.467 533.283 554.067 524.617 551.267 523.15C547.4 521.417 541.4 521.016 513.4 521.016H480.067V561.016Z" fill=""/>
</svg>
