<svg width="4959" height="1478" viewBox="0 0 4959 1478" fill="none" xmlns="http://www.w3.org/2000/svg">
<path d="M1.6 914.8C0.4 916 0 980 0 1194.67C0 1445.87 0.266667 1473.2 2.13333 1475.07C4 1477.07 230.933 1477.2 2479.33 1477.2C4727.73 1477.2 4954.67 1477.07 4956.53 1475.07C4958.4 1473.2 4958.67 1445.87 4958.67 1194.67C4958.67 980 4958.27 916 4957.07 914.8C4954.67 912.4 4 912.4 1.6 914.8ZM1258 1027.2C1304.8 1037.07 1333.07 1068.93 1339.2 1118.8L1340 1125.2H1301.6L1300 1115.73C1299.07 1110.4 1296.4 1102.4 1293.73 1097.07C1279.33 1068.4 1249.33 1054.13 1211.87 1058.27C1175.87 1062.27 1154.8 1077.47 1150.93 1102C1147.07 1126.4 1158.8 1144.8 1187.2 1158.53C1194.93 1162.4 1217.73 1170.8 1240.93 1178.4C1294.53 1196 1311.47 1204.53 1328.4 1222.4C1343.87 1238.93 1350.13 1257.33 1348.93 1283.2C1347.6 1308.13 1340.67 1326.27 1326.13 1342C1307.2 1362.8 1280.53 1374.13 1243.73 1377.07C1202 1380.4 1166.13 1368.8 1138.8 1343.07C1118.27 1323.73 1107.6 1302.67 1104.13 1274.53C1103.33 1268.4 1102.67 1263.07 1102.67 1262.93C1102.67 1262.67 1111.33 1262.53 1121.73 1262.53H1140.93L1143.2 1274.13C1149.87 1308.67 1174.8 1334.93 1207.47 1341.87C1220.27 1344.53 1240.8 1344.4 1255.6 1341.33C1292.8 1333.6 1314.27 1307.87 1311.6 1274.27C1310.67 1262.67 1306.27 1254.27 1296.27 1245.07C1282.8 1232.53 1271.73 1227.6 1222 1211.6C1183.07 1199.07 1166.93 1192.27 1151.47 1182C1137.2 1172.53 1127.87 1162.13 1121.33 1148.53C1114.8 1135.2 1113.2 1127.87 1113.07 1111.87C1112.93 1095.87 1115.07 1085.73 1120.93 1073.33C1132.93 1048 1162 1030.53 1200.67 1025.33C1213.87 1023.47 1245.33 1024.53 1258 1027.2ZM4575.33 1027.2C4622.13 1037.07 4650.4 1068.93 4656.53 1118.8L4657.33 1125.2H4618.93L4617.33 1115.73C4616.4 1110.4 4613.73 1102.4 4611.07 1097.07C4596.67 1068.4 4566.67 1054.13 4529.2 1058.27C4493.2 1062.27 4472.13 1077.47 4468.27 1102C4464.4 1126.4 4476.13 1144.8 4504.53 1158.53C4512.27 1162.4 4535.07 1170.8 4558.27 1178.4C4611.87 1196 4628.8 1204.53 4645.73 1222.4C4661.2 1238.93 4667.47 1257.33 4666.27 1283.2C4664.93 1308.13 4658 1326.27 4643.47 1342C4624.53 1362.8 4597.87 1374.13 4561.07 1377.07C4519.33 1380.4 4483.47 1368.8 4456.13 1343.07C4435.6 1323.73 4424.93 1302.67 4421.47 1274.53C4420.67 1268.4 4420 1263.07 4420 1262.93C4420 1262.67 4428.67 1262.53 4439.07 1262.53H4458.27L4460.53 1274.13C4467.2 1308.67 4492.13 1334.93 4524.8 1341.87C4537.6 1344.53 4558.13 1344.4 4572.93 1341.33C4610.13 1333.6 4631.6 1307.87 4628.93 1274.27C4628 1262.67 4623.6 1254.27 4613.6 1245.07C4600.13 1232.53 4589.07 1227.6 4539.33 1211.6C4500.4 1199.07 4484.27 1192.27 4468.8 1182C4454.53 1172.53 4445.2 1162.13 4438.67 1148.53C4432.13 1135.2 4430.53 1127.87 4430.4 1111.87C4430.27 1095.87 4432.4 1085.73 4438.27 1073.33C4450.27 1048 4479.33 1030.53 4518 1025.33C4531.2 1023.47 4562.67 1024.53 4575.33 1027.2ZM1694.13 1027.2C1775.33 1040.4 1822.13 1113.87 1815.87 1218.53C1811.47 1290.27 1778.67 1343.87 1726.13 1365.47C1688.4 1380.93 1637.2 1380 1601.87 1363.33C1573.33 1349.87 1554.27 1331.47 1538.8 1302.4C1508.27 1245.2 1508.67 1154.13 1539.6 1097.2C1548.67 1080.4 1564 1062.53 1578.67 1051.6C1593.33 1040.53 1616.13 1031.07 1636.8 1027.33C1650.8 1024.8 1679.07 1024.8 1694.13 1027.2ZM3675.47 1027.2C3756.67 1040.4 3803.47 1113.87 3797.2 1218.53C3792.8 1290.27 3760 1343.87 3707.47 1365.47C3669.73 1380.93 3618.53 1380 3583.2 1363.33C3554.67 1349.87 3535.6 1331.47 3520.13 1302.4C3489.6 1245.2 3490 1154.13 3520.93 1097.2C3530 1080.4 3545.33 1062.53 3560 1051.6C3574.67 1040.53 3597.47 1031.07 3618.13 1027.33C3632.13 1024.8 3660.4 1024.8 3675.47 1027.2ZM385.333 1367.87H349.333V1033.2H385.333V1367.87ZM832 1061.2H574.667V1033.2H832V1061.2ZM2040 1334.53H2208V1367.87H2002.67V1033.2H2040V1334.53ZM2428.4 1153.47C2428.8 1264.4 2428.93 1274.53 2431.2 1281.87C2438 1304.93 2455.47 1325.87 2476 1335.6C2490.53 1342.4 2499.07 1344.4 2514 1344.27C2548.67 1344 2579.73 1325.47 2594.53 1296.4C2602.8 1280.13 2602.67 1282.93 2602.67 1152.13V1033.2H2640V1151.73C2640 1280 2640 1281.33 2632.67 1299.73C2620.93 1329.87 2600.67 1351.07 2570.13 1365.2C2528.27 1384.8 2480.93 1381.6 2443.33 1356.93C2424.27 1344.4 2408 1324.4 2400 1303.6C2391.2 1280.67 2391.6 1287.2 2391.07 1154.13L2390.53 1033.2H2427.87L2428.4 1153.47ZM3081.33 1061.2H2824V1033.2H3081.33V1061.2ZM3305.33 1367.87H3269.33V1033.2H3305.33V1367.87ZM4014.67 1367.87H3982.67V1033.2H4014.67V1367.87ZM4237.33 1367.87L4212.4 1367.6L4187.6 1367.2L4054.67 1141.6L4054.93 1107.07L4055.33 1072.67L4199.33 1317.33L4200 1033.2H4237.33V1367.87ZM721.333 1367.87H684V1101.2H721.333V1367.87ZM2970.67 1367.87H2933.33V1101.2H2970.67V1367.87Z" fill="#F35D03"/>
<path d="M1646.67 1059.73C1621.73 1064.4 1596.4 1080.93 1580.8 1102.93C1569.73 1118.4 1560.8 1141.07 1556.53 1164.13C1553.33 1181.33 1553.33 1219.73 1556.53 1236.93C1566.8 1292.4 1598.53 1330.53 1642.67 1340.53C1653.73 1342.93 1675.47 1343.47 1686 1341.33C1726.13 1333.47 1757.73 1302.27 1771.07 1257.2C1777.33 1236.13 1778 1231.2 1778 1200.53C1778 1181.33 1777.33 1168.4 1776.27 1163.2C1764.53 1110 1738.53 1076.67 1698 1063.07C1689.07 1060.13 1684.53 1059.47 1670 1059.07C1660.53 1058.93 1650 1059.2 1646.67 1059.73Z" fill="#F35D03"/>
<path d="M3628 1059.73C3596.93 1065.47 3569.2 1087.07 3552.93 1118.27C3540.8 1141.6 3535.47 1166.4 3535.47 1200.53C3535.47 1227.6 3537.47 1241.6 3544.27 1261.6C3558.4 1304 3586.93 1332.13 3624 1340.53C3635.07 1342.93 3656.8 1343.47 3667.33 1341.33C3707.47 1333.47 3739.07 1302.27 3752.4 1257.2C3758.67 1236.13 3759.33 1231.2 3759.33 1200.53C3759.33 1181.33 3758.67 1168.4 3757.6 1163.2C3745.87 1110 3719.87 1076.67 3679.33 1063.07C3670.4 1060.13 3665.87 1059.47 3651.33 1059.07C3641.87 1058.93 3631.33 1059.2 3628 1059.73Z" fill="#F35D03"/>
<path d="M2372.92 0.857874C2289.32 7.79121 2237.98 25.3912 2209.45 56.7245C2184.52 84.0579 2172.12 113.391 2164.12 163.391C2161.32 181.125 2160.12 233.391 2162.12 253.391C2166.92 302.191 2178.92 327.391 2202.92 338.058C2226.25 348.591 2285.58 362.325 2381.58 379.391C2502.38 400.858 2544.78 411.658 2557.32 424.191C2570.65 437.525 2576.65 465.658 2575.18 508.058C2572.65 584.458 2549.58 620.858 2497.58 630.725C2425.98 644.458 2281.05 639.391 2190.65 619.925C2172.52 616.058 2173.58 616.058 2170.25 619.391C2161.58 628.058 2173.98 663.791 2189.58 675.658C2212.25 692.858 2271.32 700.725 2377.85 700.725C2497.05 700.858 2554.52 689.791 2589.05 660.325C2625.05 629.525 2641.72 586.058 2646.52 510.325C2650.12 450.591 2641.58 405.525 2621.18 377.525C2614.78 368.725 2607.18 364.325 2588.25 358.191C2553.05 346.725 2515.72 338.725 2428.92 323.925C2306.92 303.258 2262.38 292.458 2248.12 280.191C2233.05 267.391 2226.38 235.125 2229.18 189.658C2231.58 148.991 2241.98 120.458 2261.98 99.1245C2270.65 89.9245 2273.85 87.6579 2285.45 82.0579C2308.65 70.7245 2343.05 63.6579 2388.92 60.7245C2441.58 57.5245 2490.78 59.6579 2587.18 69.6579C2621.85 73.1245 2622.25 73.1245 2625.05 70.5912C2627.58 68.3245 2627.85 66.9912 2627.32 59.2579C2626.25 44.9912 2614.92 24.9912 2603.45 17.5245C2593.18 10.7245 2570.52 5.52454 2536.25 1.92454C2517.98 0.0578741 2391.85 -0.742126 2372.92 0.857874Z" fill="#F35D03"/>
<path d="M930.583 6.85809C814.716 11.3914 816.583 11.2581 810.583 18.0581C807.916 20.9914 807.916 22.8581 807.916 349.258V677.391L810.716 682.058C812.183 684.591 816.049 688.191 819.249 689.925C824.716 692.991 827.249 693.391 851.916 694.458C888.849 696.058 1197.12 694.725 1216.58 692.858C1236.32 690.991 1245.12 686.991 1255.92 674.991C1269.92 659.525 1278.05 637.658 1272.05 631.658C1269.52 629.125 1258.85 629.125 1213.92 631.391C1166.58 633.791 973.249 635.925 931.249 634.458C885.783 632.991 884.049 632.591 878.849 622.191L875.916 616.058V504.725C875.916 403.525 876.183 392.991 878.183 388.458C882.449 378.991 871.383 379.525 1042.05 378.991C1166.05 378.591 1197.12 378.191 1201.92 376.725C1213.52 373.258 1232.05 350.458 1234.58 336.458C1235.12 333.658 1234.85 329.525 1233.92 326.858C1230.85 317.391 1244.85 318.058 1056.58 318.058C922.183 318.058 885.916 317.658 883.249 316.325C875.649 312.458 875.916 316.325 875.916 196.725C875.916 86.8581 875.916 86.7248 878.849 80.4581C882.849 71.7914 886.049 70.0581 902.183 68.3248C922.849 66.1914 1150.45 66.3248 1209.92 68.5914C1245.52 69.9248 1258.05 70.0581 1260.18 68.9914C1261.78 68.0581 1263.78 65.2581 1264.58 62.5914C1268.32 51.5248 1260.32 34.8581 1244.05 19.6581C1234.45 10.7248 1234.58 10.8581 1207.25 8.45809C1192.72 7.25809 955.916 5.92476 930.583 6.85809Z" fill="#F35D03"/>
<path d="M3217.58 7.52453C3111.32 12.0579 3108.38 12.3245 3102.52 15.2579C3098.25 17.3912 3096.65 19.1245 3095.58 22.9912C3094.52 26.5912 3094.25 122.325 3094.52 352.725L3094.92 677.391L3097.98 682.325C3103.32 690.991 3108.52 692.458 3140.25 694.191C3180.78 696.458 3385.58 696.591 3414.92 694.325C3461.18 690.858 3486.12 686.725 3506.38 679.391C3541.85 666.591 3571.72 635.125 3587.45 594.058C3606.25 545.125 3606.92 464.991 3589.05 418.591C3581.72 399.658 3561.18 365.658 3548.78 351.925C3530.65 331.925 3530.38 324.591 3547.18 298.325C3559.98 278.325 3571.45 246.991 3576.52 218.725C3579.85 199.525 3579.85 142.725 3576.52 124.725C3564.12 58.0579 3532.12 25.7912 3467.58 14.8579C3447.72 11.5245 3422.52 8.99119 3394.92 7.39119C3365.58 5.79119 3256.65 5.92453 3217.58 7.52453ZM3388.25 66.0579C3442.92 69.5245 3464.38 75.9245 3482.38 93.9245C3500.92 112.591 3508.92 139.791 3508.92 183.925C3508.92 227.658 3502.38 253.258 3484.52 279.125C3474.38 293.791 3463.05 303.791 3453.32 306.458C3438.52 310.591 3407.72 311.525 3290.25 311.125C3183.05 310.725 3175.98 310.591 3171.85 308.325C3162.52 303.258 3162.92 307.925 3162.92 191.391C3162.92 76.5912 3162.65 80.1912 3170.92 72.8579C3176.12 68.3245 3180.38 67.3912 3204.78 66.0579C3231.45 64.5912 3364.78 64.5912 3388.25 66.0579ZM3410.38 368.725C3473.58 371.125 3486.38 376.325 3506.92 407.925C3523.18 432.725 3529.85 455.925 3531.18 490.725C3533.05 546.058 3516.92 593.391 3488.78 614.591C3469.05 629.525 3447.85 634.591 3390.92 638.191C3361.72 639.925 3210.65 638.991 3190.65 636.991C3170.12 634.858 3164.38 629.391 3162.92 610.991C3162.38 604.991 3162.25 551.791 3162.52 492.725C3163.05 375.925 3162.92 377.925 3170.52 372.325C3172.38 370.858 3177.45 369.258 3181.85 368.725C3193.18 367.258 3373.45 367.258 3410.38 368.725Z" fill="#F35D03"/>
<path d="M4492.25 6.85809C4376.38 11.3914 4378.25 11.2581 4372.25 18.0581C4369.58 20.9914 4369.58 22.8581 4369.58 349.258V677.391L4372.38 682.058C4373.85 684.591 4377.72 688.191 4380.92 689.925C4386.38 692.991 4388.92 693.391 4413.58 694.458C4450.52 696.058 4758.78 694.725 4778.25 692.858C4797.98 690.991 4806.78 686.991 4817.58 674.991C4831.58 659.525 4839.72 637.658 4833.72 631.658C4831.18 629.125 4820.52 629.125 4775.58 631.391C4728.25 633.791 4534.92 635.925 4492.92 634.458C4447.45 632.991 4445.72 632.591 4440.52 622.191L4437.58 616.058V504.725C4437.58 403.525 4437.85 392.991 4439.85 388.458C4444.12 378.991 4433.05 379.525 4603.72 378.991C4727.72 378.591 4758.78 378.191 4763.58 376.725C4775.18 373.258 4793.72 350.458 4796.25 336.458C4796.78 333.658 4796.52 329.525 4795.58 326.858C4792.52 317.391 4806.52 318.058 4618.25 318.058C4483.85 318.058 4447.58 317.658 4444.92 316.325C4437.32 312.458 4437.58 316.325 4437.58 196.725C4437.58 86.8581 4437.58 86.7248 4440.52 80.4581C4444.52 71.7914 4447.72 70.0581 4463.85 68.3248C4484.52 66.1914 4712.12 66.3248 4771.58 68.5914C4807.18 69.9248 4819.72 70.0581 4821.85 68.9914C4823.45 68.0581 4825.45 65.2581 4826.25 62.5914C4829.98 51.5248 4821.98 34.8581 4805.72 19.6581C4796.12 10.7248 4796.25 10.8581 4768.92 8.45809C4754.38 7.25809 4517.58 5.92476 4492.25 6.85809Z" fill="#F35D03"/>
<path d="M2825.05 10.4579C2822.52 11.3912 2819.18 13.7912 2817.72 15.7912L2814.92 19.5246V354.058C2814.92 673.791 2815.05 688.725 2817.32 690.991C2819.45 693.125 2822.52 693.391 2844.65 693.391C2867.32 693.391 2869.98 693.125 2874.25 690.725C2877.85 688.591 2879.32 686.591 2880.52 682.058C2882.65 673.925 2882.92 23.9246 2880.78 16.3246C2879.85 12.8579 2878.38 10.8579 2876.12 10.0579C2871.18 8.19124 2830.52 8.59124 2825.05 10.4579Z" fill="#F35D03"/>
<path d="M3781.32 10.1911C3778.92 10.8578 3776.38 12.5911 3775.58 14.0578C3774.65 15.7911 3774.38 122.458 3774.52 347.258L3774.92 677.924L3777.58 681.658C3779.18 683.658 3783.58 686.991 3787.58 688.991L3794.92 692.724L3856.25 694.191C3893.98 695.124 3961.58 695.391 4031.58 694.991C4168.65 694.058 4201.72 692.458 4214.92 685.791C4228.92 678.591 4247.58 651.791 4247.58 638.858C4247.58 628.458 4244.92 627.525 4220.25 628.858C4139.72 633.391 4095.58 634.458 3986.25 634.591C3923.58 634.725 3868.78 634.191 3864.65 633.658C3860.52 632.991 3855.05 631.258 3852.65 629.525C3843.58 623.525 3844.38 649.391 3843.58 320.724C3842.92 23.2578 3842.92 22.7245 3840.12 18.0578C3835.72 10.4578 3832.25 9.52447 3807.58 9.12447C3795.45 8.99113 3783.58 9.39114 3781.32 10.1911Z" fill="#F35D03"/>
<path d="M153.916 10.0579C149.916 10.5913 144.583 11.9246 142.183 13.2579C133.116 17.9246 123.516 35.6579 122.316 49.9246C121.65 58.1913 121.783 58.9913 125.25 62.0579L128.85 65.3913L349.25 66.7246L356.85 69.7913C365.65 73.3913 368.983 76.9913 372.316 86.5913C374.45 92.9913 374.583 112.191 375.25 390.991C375.916 674.458 376.05 688.725 378.316 690.991C380.45 693.125 383.516 693.391 408.716 693.391H436.85L443.25 685.925V398.991C443.25 222.725 443.783 107.791 444.583 100.858C446.316 85.3913 449.25 77.3913 454.316 73.5246C463.516 66.7246 460.983 66.8579 571.25 66.0579C663.516 65.3913 675.116 65.1246 679.516 63.1246C688.45 59.1246 697.783 41.1246 699.916 24.1913C700.85 17.2579 700.716 16.5913 696.85 12.7246L692.85 8.72461L426.983 8.85794C280.85 8.99128 157.916 9.52461 153.916 10.0579Z" fill="#145364"/>
<path d="M1467.63 2.9043L1463.53 6.18018L1463.04 346.383C1462.88 578.645 1463.2 688.715 1464.35 692.974C1466.65 701.164 1468.12 701.491 1497.46 700.672C1524.5 700.017 1528.6 698.543 1531.39 688.388C1532.54 684.293 1533.19 635.318 1533.19 545.394C1533.19 467.592 1533.85 404.53 1534.83 399.125C1537.13 384.22 1539.26 381.271 1549.58 377.668C1557.61 374.883 1565.15 374.556 1620.06 373.901C1691.53 372.918 1728.57 374.883 1745.29 379.961C1754.79 382.909 1758.07 385.039 1764.96 392.246C1769.55 396.996 1776.92 406.987 1781.35 414.522C1785.77 421.893 1815.77 482.497 1848.06 548.998C1884.77 624.999 1909.19 673.319 1913.29 678.724C1917.23 683.801 1923.29 689.207 1928.37 691.827C1937.88 697.069 1956.73 700.836 1973.77 701C1989.51 701 1995.41 698.052 1995.41 690.026C1995.41 686.914 1954.6 602.887 1862.97 417.962C1837.73 367.185 1833.63 351.461 1840.52 330.823C1846.25 313.46 1861.17 284.796 1932.31 153.924C1984.92 56.9567 2004.1 20.2666 2004.75 15.0251C2006.56 1.75772 1998.85 -1.35441 1970.66 1.43011C1948.04 3.72325 1936.08 9.45607 1925.75 22.5597C1921.82 27.4736 1906.08 55.6464 1890.67 84.9658C1875.43 114.285 1847.89 167.027 1829.54 202.243C1811.18 237.295 1792.82 270.873 1788.89 276.77C1774.63 297.736 1762.33 306.908 1742.83 311.331C1736.93 312.641 1707.26 313.46 1651.53 313.952C1547.94 314.934 1540.9 313.952 1536.31 300.193C1534.67 295.443 1534.01 259.408 1533.36 153.924C1532.37 20.1028 1532.21 13.7148 1529.26 9.2923C1524.18 1.92151 1520.73 0.938751 1495.49 0.283569C1473.53 -0.371612 1471.4 -0.0440192 1467.63 2.9043Z" fill="#145364"/>
</svg>
